<svg xmlns="http://www.w3.org/2000/svg" viewBox="99.15 37.4 395.69 63.6" width="395.69" height="63.6">
  <!-- Montserrat SemiBold, outlined. An <img>-loaded SVG cannot fetch a webfont,
       so the text is baked to paths and renders identically on every machine.
       viewBox is cropped to the ink, so the mark fills whatever box it is given. -->
  <path d="M169.7 49.6 156.812 88.12 144.068 49.6H135.428L122.396 87.904L109.86800000000001 49.6H100.14800000000001L116.852 100.0H126.86000000000001L139.532 62.704L151.988 100.0H161.924L178.628 49.6Z M201.7 92.152V78.256H226.036V70.552H201.7V57.448H229.132V49.6H192.34V100.0H230.14V92.152Z M283.308 100.0H293.1L270.348 49.6H261.132L238.452 100.0H248.10000000000002L253.068 88.336H278.26800000000003ZM256.236 80.992 265.668 58.96 275.172 80.992Z M347.564 100.0 335.972 83.44C342.812 80.776 346.7 75.16 346.7 67.528C346.7 56.368 338.492 49.6 325.244 49.6H304.508V100.0H313.868V85.312H325.244C325.892 85.312 326.54 85.312 327.188 85.24000000000001L337.48400000000004 100.0ZM337.26800000000003 67.528C337.26800000000003 73.864 333.02 77.608 324.812 77.608H313.868V57.52H324.812C333.02 57.52 337.26800000000003 61.192 337.26800000000003 67.528Z M362.14 100.0H371.5V49.6H362.14Z M426.90000000000003 57.448V49.6H390.108V100.0H399.468V80.70400000000001H423.80400000000003V72.784H399.468V57.448Z M482.444 49.6H473.228L458.324 74.152L443.564 49.6H433.556L453.356 82.36V100.0H462.716V82.21600000000001Z" fill="#682628"/>
  <path d="M458.152 41.174H463.7V54.17H467.196V41.174H472.744V38.400000000000006H458.152ZM493.834 54.17 493.796 38.400000000000006H490.984L484.41 48.507999999999996L477.722 38.400000000000006H474.91V54.17H478.216V44.403999999999996L483.574 52.422H485.17L490.49 44.214L490.528 54.17Z" fill="#682628"/>
</svg>
