<svg width="23" height="22" viewBox="0 0 23 22" fill="none" xmlns="http://www.w3.org/2000/svg">
<path d="M13.8125 0C13.166 0 12.546 0.256807 12.0889 0.713927C11.6318 1.17105 11.375 1.79103 11.375 2.4375V5.6875C11.3751 6.1915 11.5314 6.68309 11.8224 7.09459C12.1134 7.50608 12.5248 7.81725 13 7.98525V9.75C13.0001 9.90439 13.0441 10.0556 13.127 10.1858C13.2098 10.3161 13.3281 10.42 13.4679 10.4855C13.6077 10.551 13.7633 10.5753 13.9164 10.5555C14.0696 10.5358 14.2139 10.4728 14.3325 10.374L17.03 8.125H20.3125C20.959 8.125 21.579 7.86819 22.0361 7.41107C22.4932 6.95395 22.75 6.33397 22.75 5.6875V2.4375C22.75 1.79103 22.4932 1.17105 22.0361 0.713927C21.579 0.256807 20.959 0 20.3125 0H13.8125ZM13 2.4375C13 2.22201 13.0856 2.01535 13.238 1.86298C13.3903 1.7106 13.597 1.625 13.8125 1.625H20.3125C20.528 1.625 20.7347 1.7106 20.887 1.86298C21.0394 2.01535 21.125 2.22201 21.125 2.4375V5.6875C21.125 5.90299 21.0394 6.10965 20.887 6.26202C20.7347 6.4144 20.528 6.5 20.3125 6.5H16.7375C16.5475 6.50009 16.3635 6.56679 16.2175 6.6885L14.625 8.0145V7.3125C14.625 7.09701 14.5394 6.89035 14.387 6.73798C14.2347 6.5856 14.028 6.5 13.8125 6.5C13.597 6.5 13.3903 6.4144 13.238 6.26202C13.0856 6.10965 13 5.90299 13 5.6875V2.4375ZM3.25 8.125C3.25 7.26305 3.59241 6.4364 4.2019 5.8269C4.8114 5.21741 5.63805 4.875 6.5 4.875C7.36195 4.875 8.1886 5.21741 8.7981 5.8269C9.40759 6.4364 9.75 7.26305 9.75 8.125C9.75 8.98695 9.40759 9.8136 8.7981 10.4231C8.1886 11.0326 7.36195 11.375 6.5 11.375C5.63805 11.375 4.8114 11.0326 4.2019 10.4231C3.59241 9.8136 3.25 8.98695 3.25 8.125ZM6.5 6.5C6.06902 6.5 5.6557 6.67121 5.35095 6.97595C5.04621 7.2807 4.875 7.69402 4.875 8.125C4.875 8.55598 5.04621 8.9693 5.35095 9.27405C5.6557 9.57879 6.06902 9.75 6.5 9.75C6.93098 9.75 7.3443 9.57879 7.64905 9.27405C7.95379 8.9693 8.125 8.55598 8.125 8.125C8.125 7.69402 7.95379 7.2807 7.64905 6.97595C7.3443 6.67121 6.93098 6.5 6.5 6.5ZM2.4375 13H10.5625C11.209 13 11.829 13.2568 12.2861 13.7139C12.7432 14.171 13 14.791 13 15.4375C13 17.251 12.2541 18.7037 11.0305 19.6869C9.82638 20.6537 8.21113 21.125 6.5 21.125C4.78888 21.125 3.17362 20.6537 1.9695 19.6869C0.7475 18.7037 0 17.251 0 15.4375C0 14.791 0.256807 14.171 0.713927 13.7139C1.17105 13.2568 1.79103 13 2.4375 13ZM10.5625 14.625H2.4375C2.22201 14.625 2.01535 14.7106 1.86298 14.863C1.7106 15.0153 1.625 15.222 1.625 15.4375C1.625 16.7651 2.15313 17.7499 2.98675 18.4194C3.8415 19.1051 5.07 19.5 6.5 19.5C7.93 19.5 9.1585 19.1051 10.0133 18.4194C10.8469 17.7499 11.375 16.7651 11.375 15.4375C11.375 15.222 11.2894 15.0153 11.137 14.863C10.9847 14.7106 10.778 14.625 10.5625 14.625Z" fill="#68262A"/>
</svg>
