<svg width="20" height="18" viewBox="0 0 20 18" fill="none" xmlns="http://www.w3.org/2000/svg">
<path d="M9.63932 12.3055C11.1121 12.3055 12.306 11.1116 12.306 9.63883C12.306 8.16607 11.1121 6.97217 9.63932 6.97217C8.16656 6.97217 6.97266 8.16607 6.97266 9.63883C6.97266 11.1116 8.16656 12.3055 9.63932 12.3055Z" stroke="black" stroke-width="1.5"/>
<path d="M0.75 9.96246C0.75 7.23803 0.75 5.87625 1.41578 4.89848C1.70517 4.47358 2.07549 4.10991 2.50555 3.82826C3.14555 3.40781 3.94733 3.25759 5.17488 3.20426C5.76065 3.20426 6.26465 2.7687 6.37932 2.20426C6.46695 1.79081 6.69463 1.42029 7.0239 1.15533C7.35316 0.890366 7.7638 0.747205 8.18643 0.750041H11.0913C11.9695 0.750041 12.726 1.35893 12.8984 2.20426C13.0131 2.7687 13.5171 3.20426 14.1029 3.20426C15.3295 3.25759 16.1313 3.4087 16.7722 3.82826C17.2033 4.11092 17.574 4.47448 17.862 4.89848C18.5277 5.87625 18.5277 7.23803 18.5277 9.96246C18.5277 12.6869 18.5277 14.0478 17.862 15.0264C17.5726 15.4513 17.2022 15.815 16.7722 16.0967C15.7757 16.75 14.3882 16.75 11.614 16.75H7.66376C4.88954 16.75 3.50199 16.75 2.50555 16.0967C2.07572 15.8147 1.70571 15.4507 1.41666 15.0256C1.22355 14.7379 1.08133 14.4192 0.996222 14.0833M15.8611 6.97225H14.9722" stroke="black" stroke-width="1.5" stroke-linecap="round"/>
</svg>
