<svg width="22" height="22" viewBox="0 0 22 22" fill="none" xmlns="http://www.w3.org/2000/svg">
<path d="M6.7375 21.1343C5.39917 20.5564 4.2306 19.7681 3.2318 18.7693C2.233 17.7705 1.44467 16.6016 0.8668 15.2625C0.288933 13.9234 0 12.4982 0 10.9868C0 9.4754 0.288933 8.05457 0.8668 6.7243C1.44467 5.39403 2.233 4.22987 3.2318 3.2318C4.2306 2.23373 5.39917 1.4454 6.7375 0.866801C8.07583 0.288201 9.50143 -0.000731941 11.0143 1.3924e-06C12.5272 0.000734726 13.948 0.289668 15.2768 0.866801C16.6056 1.44393 17.7698 2.23227 18.7693 3.2318C19.7688 4.23133 20.5572 5.3955 21.1343 6.7243C21.7114 8.0531 22 9.47393 22 10.9868C22 12.4997 21.7114 13.9249 21.1343 15.2625C20.5572 16.6001 19.7688 17.769 18.7693 18.7693C17.7698 19.7696 16.6056 20.5579 15.2768 21.1343C13.948 21.7107 12.5272 21.9993 11.0143 22C9.50143 22.0007 8.07583 21.7122 6.7375 21.1343ZM11 19.745C11.4767 19.085 11.8892 18.3975 12.2375 17.6825C12.5858 16.9675 12.87 16.2067 13.09 15.4H8.91C9.13 16.2067 9.41417 16.9675 9.7625 17.6825C10.1108 18.3975 10.5233 19.085 11 19.745ZM8.14 19.305C7.81 18.7 7.52143 18.0719 7.2743 17.4207C7.02717 16.7695 6.82073 16.0959 6.655 15.4H3.41C3.94167 16.3167 4.60643 17.1142 5.4043 17.7925C6.20217 18.4708 7.11407 18.975 8.14 19.305ZM13.86 19.305C14.8867 18.975 15.7989 18.4708 16.5968 17.7925C17.3947 17.1142 18.0591 16.3167 18.59 15.4H15.345C15.18 16.0967 14.9739 16.7706 14.7268 17.4218C14.4797 18.073 14.1907 18.7007 13.86 19.305ZM2.475 13.2H6.215C6.16 12.8333 6.11893 12.4714 6.0918 12.1143C6.06467 11.7572 6.05073 11.3857 6.05 11C6.04927 10.6143 6.0632 10.2432 6.0918 9.8868C6.1204 9.5304 6.16147 9.16813 6.215 8.8H2.475C2.38333 9.16667 2.31477 9.52893 2.2693 9.8868C2.22383 10.2447 2.20073 10.6157 2.2 11C2.19927 11.3843 2.22237 11.7557 2.2693 12.1143C2.31623 12.4729 2.3848 12.8348 2.475 13.2ZM8.415 13.2H13.585C13.64 12.8333 13.6814 12.4714 13.7093 12.1143C13.7372 11.7572 13.7507 11.3857 13.75 11C13.7493 10.6143 13.7353 10.2432 13.7082 9.8868C13.6811 9.5304 13.64 9.16813 13.585 8.8H8.415C8.36 9.16667 8.31893 9.52893 8.2918 9.8868C8.26467 10.2447 8.25073 10.6157 8.25 11C8.24927 11.3843 8.2632 11.7557 8.2918 12.1143C8.3204 12.4729 8.36147 12.8348 8.415 13.2ZM15.785 13.2H19.525C19.6167 12.8333 19.6856 12.4714 19.7318 12.1143C19.778 11.7572 19.8007 11.3857 19.8 11C19.7993 10.6143 19.7765 10.2432 19.7318 9.8868C19.6871 9.5304 19.6181 9.16813 19.525 8.8H15.785C15.84 9.16667 15.8814 9.52893 15.9093 9.8868C15.9372 10.2447 15.9507 10.6157 15.95 11C15.9493 11.3843 15.9353 11.7557 15.9082 12.1143C15.8811 12.4729 15.84 12.8348 15.785 13.2ZM15.345 6.6H18.59C18.0583 5.68333 17.3939 4.88583 16.5968 4.2075C15.7997 3.52917 14.8874 3.025 13.86 2.695C14.19 3.3 14.4789 3.9281 14.7268 4.5793C14.9747 5.2305 15.1807 5.90407 15.345 6.6ZM8.91 6.6H13.09C12.87 5.79333 12.5858 5.0325 12.2375 4.3175C11.8892 3.6025 11.4767 2.915 11 2.255C10.5233 2.915 10.1108 3.6025 9.7625 4.3175C9.41417 5.0325 9.13 5.79333 8.91 6.6ZM3.41 6.6H6.655C6.82 5.90333 7.02643 5.2294 7.2743 4.5782C7.52217 3.927 7.81073 3.29927 8.14 2.695C7.11333 3.025 6.20107 3.52917 5.4032 4.2075C4.60533 4.88583 3.94093 5.68333 3.41 6.6Z" fill="#68262A"/>
</svg>
