<svg width="25" height="22" viewBox="0 0 25 22" fill="none" xmlns="http://www.w3.org/2000/svg">
<path d="M5.19886 22L2.67046 8.07632C1.9697 8.2114 1.34924 8.04737 0.809092 7.58421C0.268941 7.12105 -0.000755984 6.52281 1.59155e-06 5.78948C1.59155e-06 5.15263 0.222729 4.60765 0.668183 4.15453C1.11364 3.7014 1.64849 3.47446 2.27273 3.47369C2.89697 3.47291 3.4322 3.69986 3.87841 4.15453C4.32462 4.60919 4.54697 5.15418 4.54545 5.78948C4.54545 6.05965 4.50758 6.31053 4.43182 6.54211C4.35606 6.77369 4.24242 6.98597 4.09091 7.17895C4.50758 7.42983 4.92917 7.63748 5.35568 7.8019C5.7822 7.96632 6.23182 8.04814 6.70455 8.04737C7.53788 8.04737 8.30985 7.83509 9.02045 7.41053C9.73106 6.98597 10.2848 6.40702 10.6818 5.67369L11.392 4.34211C11.0322 4.12983 10.7481 3.85 10.5398 3.50263C10.3314 3.15526 10.2273 2.75965 10.2273 2.31579C10.2273 1.67895 10.45 1.13397 10.8955 0.680844C11.3409 0.227721 11.8758 0.000773892 12.5 1.96253e-06C13.1242 -0.000769967 13.6595 0.226177 14.1057 0.680844C14.5519 1.13551 14.7742 1.68049 14.7727 2.31579C14.7727 2.75965 14.6686 3.15526 14.4602 3.50263C14.2519 3.85 13.9678 4.12983 13.608 4.34211L14.3182 5.67369C14.7159 6.40702 15.2701 6.98597 15.9807 7.41053C16.6913 7.83509 17.4629 8.04737 18.2955 8.04737C18.7689 8.04737 19.2189 7.97018 19.6455 7.81579C20.072 7.66141 20.4932 7.45877 20.9091 7.2079C20.7576 7.01491 20.6439 6.798 20.5682 6.55716C20.4924 6.31632 20.4545 6.06042 20.4545 5.78948C20.4545 5.15263 20.6773 4.60765 21.1227 4.15453C21.5682 3.7014 22.103 3.47446 22.7273 3.47369C23.3515 3.47291 23.8867 3.69986 24.3329 4.15453C24.7792 4.60919 25.0015 5.15418 25 5.78948C25 6.52281 24.7303 7.12105 24.1909 7.58421C23.6515 8.04737 23.0311 8.2114 22.3295 8.07632L19.8011 22H5.19886Z" fill="#68262A"/>
</svg>
