<svg width="24" height="24" viewBox="0 0 24 24" fill="none" xmlns="http://www.w3.org/2000/svg">
<path d="M8.08125 8.08125L23 20.25M23 3.75L8.08125 15.9188M5.125 1C4.5833 1 4.0469 1.1067 3.54643 1.314C3.04596 1.5213 2.59123 1.82514 2.20818 2.20818C1.82514 2.59123 1.5213 3.04596 1.314 3.54643C1.1067 4.0469 1 4.5833 1 5.125C1 5.6667 1.1067 6.2031 1.314 6.70357C1.5213 7.20404 1.82514 7.65877 2.20818 8.04182C2.59123 8.42486 3.04596 8.7287 3.54643 8.936C4.0469 9.1433 4.5833 9.25 5.125 9.25C5.6667 9.25 6.2031 9.1433 6.70357 8.936C7.20404 8.7287 7.65877 8.42486 8.04182 8.04182C8.42486 7.65877 8.7287 7.20404 8.936 6.70357C9.1433 6.2031 9.25 5.6667 9.25 5.125C9.25 4.5833 9.1433 4.0469 8.936 3.54643C8.7287 3.04596 8.42486 2.59123 8.04182 2.20818C7.65877 1.82514 7.20404 1.5213 6.70357 1.314C6.2031 1.1067 5.6667 1 5.125 1ZM5.125 14.75C4.03098 14.75 2.98177 15.1846 2.20818 15.9582C1.4346 16.7318 1 17.781 1 18.875C1 19.969 1.4346 21.0182 2.20818 21.7918C2.98177 22.5654 4.03098 23 5.125 23C6.21902 23 7.26823 22.5654 8.04182 21.7918C8.8154 21.0182 9.25 19.969 9.25 18.875C9.25 17.781 8.8154 16.7318 8.04182 15.9582C7.26823 15.1846 6.21902 14.75 5.125 14.75Z" stroke="#68262A" stroke-width="2" stroke-linecap="round" stroke-linejoin="round"/>
</svg>
