<svg width="21" height="22" viewBox="0 0 21 22" fill="none" xmlns="http://www.w3.org/2000/svg">
<path d="M19.2842 11.7259C19.1129 11.5252 19.0184 11.2672 19.0184 11C19.0184 10.7328 19.1129 10.4748 19.2842 10.2741L20.6522 8.69031C20.803 8.51727 20.8966 8.29954 20.9196 8.06836C20.9426 7.83717 20.8939 7.60442 20.7805 7.40349L18.6429 3.59801C18.5306 3.39731 18.3596 3.23822 18.1542 3.14342C17.9489 3.04863 17.7197 3.02296 17.4994 3.07008L15.4901 3.48802C15.2344 3.54239 14.9683 3.49857 14.7418 3.36484C14.5154 3.23111 14.3444 3.01672 14.261 2.76212L13.6091 0.749394C13.5374 0.530941 13.4008 0.341201 13.2186 0.206994C13.0364 0.0727869 12.8178 0.000900553 12.5937 0.00149575H8.31867C8.08561 -0.0110228 7.85497 0.0553074 7.66199 0.190356C7.469 0.325404 7.32427 0.521746 7.24991 0.749394L6.6514 2.76212C6.56804 3.01672 6.39701 3.23111 6.17058 3.36484C5.94415 3.49857 5.67799 3.54239 5.42232 3.48802L3.35961 3.07008C3.15072 3.0397 2.93777 3.07362 2.74758 3.16757C2.55739 3.26151 2.39847 3.41128 2.29084 3.59801L0.153315 7.40349C0.036991 7.60218 -0.0153121 7.83362 0.0038834 8.06474C0.0230789 8.29587 0.11279 8.51482 0.260192 8.69031L1.61752 10.2741C1.78887 10.4748 1.88336 10.7328 1.88336 11C1.88336 11.2672 1.78887 11.5252 1.61752 11.7259L0.260192 13.3097C0.11279 13.4852 0.0230789 13.7041 0.0038834 13.9353C-0.0153121 14.1664 0.036991 14.3978 0.153315 14.5965L2.29084 18.402C2.40317 18.6027 2.57419 18.7618 2.77954 18.8566C2.98488 18.9514 3.21407 18.977 3.43442 18.9299L5.4437 18.512C5.69936 18.4576 5.96553 18.5014 6.19195 18.6352C6.41838 18.7689 6.58941 18.9833 6.67278 19.2379L7.32472 21.2506C7.39909 21.4783 7.54381 21.6746 7.7368 21.8096C7.92979 21.9447 8.16043 22.011 8.39349 21.9985H12.6685C12.8926 21.9991 13.1112 21.9272 13.2934 21.793C13.4756 21.6588 13.6122 21.4691 13.6839 21.2506L14.3358 19.2379C14.4192 18.9833 14.5902 18.7689 14.8166 18.6352C15.0431 18.5014 15.3092 18.4576 15.5649 18.512L17.5742 18.9299C17.7945 18.977 18.0237 18.9514 18.2291 18.8566C18.4344 18.7618 18.6054 18.6027 18.7178 18.402L20.8553 14.5965C20.9688 14.3956 21.0175 14.1628 20.9944 13.9316C20.9714 13.7005 20.8778 13.4827 20.727 13.3097L19.2842 11.7259ZM17.6917 13.1997L18.5467 14.1896L17.1787 16.6312L15.9176 16.3673C15.1478 16.2053 14.3471 16.3399 13.6674 16.7454C12.9877 17.1509 12.4763 17.7991 12.2304 18.567L11.8242 19.7988H9.08818L8.70343 18.545C8.45746 17.7771 7.94608 17.1289 7.26637 16.7234C6.58666 16.3179 5.78594 16.1834 5.01619 16.3453L3.75505 16.6092L2.36566 14.1786L3.22067 13.1887C3.74645 12.5838 4.03713 11.8006 4.03713 10.989C4.03713 10.1774 3.74645 9.39424 3.22067 8.7893L2.36566 7.79944L3.73368 5.37976L4.99482 5.64373C5.76456 5.80565 6.56529 5.67109 7.245 5.2656C7.92471 4.8601 8.43608 4.2119 8.68205 3.44403L9.08818 2.2012H11.8242L12.2304 3.45503C12.4763 4.2229 12.9877 4.8711 13.6674 5.2766C14.3471 5.68209 15.1478 5.81665 15.9176 5.65473L17.1787 5.39076L18.5467 7.83243L17.6917 8.8223C17.1719 9.42585 16.8848 10.2045 16.8848 11.011C16.8848 11.8175 17.1719 12.5961 17.6917 13.1997ZM10.4562 6.6006C9.61068 6.6006 8.78414 6.85862 8.08111 7.34203C7.37808 7.82544 6.83013 8.51254 6.50656 9.31642C6.183 10.1203 6.09834 11.0049 6.26329 11.8583C6.42824 12.7117 6.8354 13.4956 7.43328 14.1108C8.03116 14.7261 8.7929 15.1451 9.62218 15.3149C10.4515 15.4846 11.311 15.3975 12.0922 15.0645C12.8734 14.7315 13.541 14.1677 14.0108 13.4442C14.4805 12.7207 14.7313 11.8701 14.7313 11C14.7313 9.83321 14.2809 8.7142 13.4791 7.88915C12.6774 7.06411 11.59 6.6006 10.4562 6.6006ZM10.4562 13.1997C10.0334 13.1997 9.62017 13.0707 9.26865 12.829C8.91714 12.5873 8.64317 12.2437 8.48138 11.8418C8.3196 11.4398 8.27727 10.9976 8.35975 10.5709C8.44222 10.1442 8.6458 9.75221 8.94474 9.44458C9.24368 9.13694 9.62455 8.92744 10.0392 8.84257C10.4538 8.75769 10.8836 8.80125 11.2742 8.96774C11.6648 9.13423 11.9986 9.41617 12.2335 9.77791C12.4684 10.1397 12.5937 10.5649 12.5937 11C12.5937 11.5834 12.3685 12.1429 11.9677 12.5554C11.5668 12.9679 11.0231 13.1997 10.4562 13.1997Z" fill="#68262A"/>
</svg>
