<svg width="23" height="23" viewBox="0 0 23 23" fill="none" xmlns="http://www.w3.org/2000/svg">
<path fill-rule="evenodd" clip-rule="evenodd" d="M3.7375 9.75976V7.48193C3.7375 5.4976 4.55533 3.59454 6.01108 2.19141C7.46683 0.788272 9.44126 0 11.5 0C13.5587 0 15.5332 0.788272 16.9889 2.19141C18.4447 3.59454 19.2625 5.4976 19.2625 7.48193V9.75976C20.5448 9.85176 21.3785 10.0845 21.9891 10.6731C23 11.6463 23 13.2147 23 16.3494C23 19.484 23 21.0525 21.9891 22.0257C20.9795 23 19.3522 23 16.1 23H6.9C3.6478 23 2.02055 23 1.01085 22.0257C-6.85453e-08 21.0525 0 19.484 0 16.3494C0 13.2147 -6.85453e-08 11.6463 1.01085 10.6731C1.62035 10.0845 2.45525 9.85176 3.7375 9.75976ZM5.4625 7.48193C5.4625 5.93856 6.09859 4.4584 7.23084 3.36708C8.36309 2.27575 9.89876 1.66265 11.5 1.66265C13.1012 1.66265 14.6369 2.27575 15.7692 3.36708C16.9014 4.4584 17.5375 5.93856 17.5375 7.48193V9.70323C17.0974 9.69953 16.6183 9.69806 16.1 9.6988H6.9C6.38097 9.69806 5.9018 9.69953 5.4625 9.70323V7.48193Z" fill="#68262A"/>
</svg>
