<svg width="24" height="24" viewBox="0 0 24 24" fill="none" xmlns="http://www.w3.org/2000/svg">
<path d="M8.86911 4.74882C10.2628 2.24961 10.9591 1 12.0007 1C13.0424 1 13.7387 2.24961 15.1324 4.74882L15.4931 5.39563C15.8891 6.10623 16.0871 6.46154 16.3951 6.69584C16.7031 6.93014 17.0881 7.01704 17.8581 7.19084L18.5577 7.34924C21.2636 7.96194 22.6155 8.26775 22.9378 9.30285C23.259 10.3369 22.3372 11.416 20.4925 13.5731L20.0151 14.1308C19.4916 14.7435 19.2287 15.0504 19.111 15.4288C18.9933 15.8083 19.0329 16.2175 19.1121 17.0348L19.1847 17.7795C19.463 20.6582 19.6027 22.097 18.7601 22.7361C17.9175 23.3752 16.6503 22.7922 14.1182 21.6262L13.4615 21.3248C12.7421 20.9926 12.3824 20.8276 12.0007 20.8276C11.619 20.8276 11.2593 20.9926 10.54 21.3248L9.88438 21.6262C7.35114 22.7922 6.08397 23.3752 5.24249 22.7372C4.39881 22.097 4.53851 20.6582 4.8168 17.7795L4.8894 17.0359C4.9686 16.2175 5.0082 15.8083 4.8894 15.4299C4.7728 15.0504 4.50991 14.7435 3.98632 14.1319L3.50893 13.5731C1.66428 11.4171 0.742497 10.338 1.06369 9.30285C1.38488 8.26775 2.73895 7.96084 5.44489 7.34924L6.14447 7.19084C6.91335 7.01704 7.29724 6.93014 7.60634 6.69584C7.91543 6.46154 8.11232 6.10623 8.50831 5.39563L8.86911 4.74882Z" stroke="#68262A" stroke-width="2"/>
</svg>
