<svg width="33" height="22" viewBox="0 0 33 22" fill="none" xmlns="http://www.w3.org/2000/svg">
<path d="M22.5 9.42857C24.99 9.42857 26.985 7.32286 26.985 4.71429C26.985 2.10571 24.99 0 22.5 0C20.01 0 18 2.10571 18 4.71429C18 7.32286 20.01 9.42857 22.5 9.42857ZM10.5 9.42857C12.99 9.42857 14.985 7.32286 14.985 4.71429C14.985 2.10571 12.99 0 10.5 0C8.01 0 6 2.10571 6 4.71429C6 7.32286 8.01 9.42857 10.5 9.42857ZM10.5 12.5714C7.005 12.5714 0 14.41 0 18.0714V20.4286C0 21.2929 0.675 22 1.5 22H19.5C20.325 22 21 21.2929 21 20.4286V18.0714C21 14.41 13.995 12.5714 10.5 12.5714ZM22.5 12.5714C22.065 12.5714 21.57 12.6029 21.045 12.65C21.075 12.6657 21.09 12.6971 21.105 12.7129C22.815 14.0171 24 15.7614 24 18.0714V20.4286C24 20.9786 23.895 21.5129 23.73 22H31.5C32.325 22 33 21.2929 33 20.4286V18.0714C33 14.41 25.995 12.5714 22.5 12.5714Z" fill="#68262A"/>
</svg>
