<svg width="8" height="10" viewBox="0 0 8 10" fill="none" xmlns="http://www.w3.org/2000/svg">
<path fill-rule="evenodd" clip-rule="evenodd" d="M1.75 2.5V2.25C1.75 1.65326 1.98705 1.08097 2.40901 0.65901C2.83097 0.237053 3.40326 0 4 0C4.59674 0 5.16903 0.237053 5.59099 0.65901C6.01295 1.08097 6.25 1.65326 6.25 2.25V2.5H7.5C7.776 2.5 8 2.7245 8 3.0035V9.004C8 9.554 7.5525 10 7.003 10H0.997C0.732752 10 0.479313 9.8951 0.292368 9.70834C0.105423 9.52158 0.000265043 9.26825 0 9.004V3.004C0 2.725 0.2225 2.5 0.5 2.5H1.75ZM2.5 2.5H5.5V2.25C5.5 1.85218 5.34196 1.47064 5.06066 1.18934C4.77936 0.908035 4.39782 0.75 4 0.75C3.60218 0.75 3.22064 0.908035 2.93934 1.18934C2.65804 1.47064 2.5 1.85218 2.5 2.25V2.5ZM1.75 2.5V4.5H2.5V2.5H1.75ZM5.5 2.5V4.5H6.25V2.5H5.5Z" fill="#68262A"/>
</svg>
