<svg width="23" height="23" viewBox="0 0 23 23" fill="none" xmlns="http://www.w3.org/2000/svg">
<path d="M11.0848 0C17.2067 0 22.1692 4.96246 22.1692 11.0843C22.1692 17.2062 17.2067 22.1687 11.0848 22.1687C4.96295 22.1687 0.000488281 17.2062 0.000488281 11.0843C0.000488281 4.96246 4.96295 0 11.0848 0ZM11.0848 2.21687C8.73303 2.21687 6.47755 3.15112 4.81458 4.81409C3.1516 6.47706 2.21736 8.73254 2.21736 11.0843C2.21736 13.4361 3.1516 15.6916 4.81458 17.3546C6.47755 19.0176 8.73303 19.9518 11.0848 19.9518C13.4366 19.9518 15.6921 19.0176 17.3551 17.3546C19.018 15.6916 19.9523 13.4361 19.9523 11.0843C19.9523 8.73254 19.018 6.47706 17.3551 4.81409C15.6921 3.15112 13.4366 2.21687 11.0848 2.21687ZM11.0848 4.43373C11.3563 4.43377 11.6184 4.53344 11.8212 4.71385C12.0241 4.89426 12.1537 5.14285 12.1855 5.41248L12.1933 5.54217V10.6254L15.1938 13.626C15.3926 13.8254 15.508 14.0931 15.5166 14.3746C15.5252 14.6561 15.4263 14.9303 15.2401 15.1415C15.0538 15.3527 14.7941 15.4852 14.5138 15.5119C14.2334 15.5386 13.9534 15.4576 13.7307 15.2853L13.6265 15.1933L10.3012 11.868C10.1289 11.6956 10.0182 11.4712 9.98637 11.2295L9.97639 11.0843V5.54217C9.97639 5.24819 10.0932 4.96626 10.301 4.75839C10.5089 4.55052 10.7909 4.43373 11.0848 4.43373Z" fill="#68262A"/>
</svg>
