<svg width="392" height="162" viewBox="0 0 392 162" fill="none" xmlns="http://www.w3.org/2000/svg">
<g filter="url(#filter0_d_2917_3615)">
<rect x="14" y="11" width="363" height="132" rx="10" fill="url(#paint0_linear_2917_3615)"/>
<path d="M41.625 59.1125V60.8H35.5781V59.1125H41.625ZM36.2344 49.425V60.8H34.0859V49.425H36.2344ZM40.8359 54.1203V55.7687H35.5781V54.1203H40.8359ZM41.6016 49.425V51.1203H35.5781V49.425H41.6016ZM47.6172 59.0031V55.1047C47.6172 54.8182 47.5677 54.5708 47.4688 54.3625C47.3698 54.1542 47.2188 53.9927 47.0156 53.8781C46.8125 53.7635 46.5547 53.7062 46.2422 53.7062C45.9661 53.7062 45.724 53.7531 45.5156 53.8469C45.3125 53.9406 45.1562 54.0734 45.0469 54.2453C44.9375 54.412 44.8828 54.6047 44.8828 54.8234H42.8125C42.8125 54.4745 42.8958 54.1437 43.0625 53.8312C43.2292 53.5135 43.4661 53.2323 43.7734 52.9875C44.0859 52.7375 44.4583 52.5422 44.8906 52.4016C45.3281 52.2609 45.8177 52.1906 46.3594 52.1906C47 52.1906 47.5703 52.3 48.0703 52.5187C48.5755 52.7323 48.9714 53.0552 49.2578 53.4875C49.5495 53.9198 49.6953 54.4641 49.6953 55.1203V58.8078C49.6953 59.2297 49.7214 59.5917 49.7734 59.8937C49.8307 60.1906 49.9141 60.4484 50.0234 60.6672V60.8H47.9219C47.8229 60.5864 47.7474 60.3156 47.6953 59.9875C47.6432 59.6542 47.6172 59.326 47.6172 59.0031ZM47.9062 55.6516L47.9219 56.8781H46.6172C46.2943 56.8781 46.0104 56.912 45.7656 56.9797C45.5208 57.0422 45.3203 57.1359 45.1641 57.2609C45.0078 57.3807 44.8906 57.5266 44.8125 57.6984C44.7344 57.8651 44.6953 58.0552 44.6953 58.2687C44.6953 58.4771 44.7422 58.6646 44.8359 58.8312C44.9349 58.9979 45.0755 59.1307 45.2578 59.2297C45.4453 59.3234 45.6641 59.3703 45.9141 59.3703C46.2786 59.3703 46.5964 59.2974 46.8672 59.1516C47.138 59.0005 47.349 58.8182 47.5 58.6047C47.651 58.3911 47.7318 58.188 47.7422 57.9953L48.3359 58.8859C48.263 59.0995 48.1536 59.326 48.0078 59.5656C47.862 59.8052 47.6745 60.0292 47.4453 60.2375C47.2161 60.4458 46.9401 60.6177 46.6172 60.7531C46.2943 60.8885 45.9193 60.9562 45.4922 60.9562C44.9453 60.9562 44.4557 60.8469 44.0234 60.6281C43.5911 60.4094 43.25 60.1099 43 59.7297C42.75 59.3495 42.625 58.9172 42.625 58.4328C42.625 57.9849 42.7083 57.5891 42.875 57.2453C43.0417 56.9016 43.2891 56.6125 43.6172 56.3781C43.9453 56.1385 44.3516 55.9588 44.8359 55.8391C45.3255 55.7141 45.8854 55.6516 46.5156 55.6516H47.9062ZM53.6172 54.0734V60.8H51.5547V52.3469H53.5078L53.6172 54.0734ZM56.1875 52.2922L56.1562 54.2141C56.0417 54.1932 55.9115 54.1776 55.7656 54.1672C55.625 54.1568 55.4922 54.1516 55.3672 54.1516C55.0495 54.1516 54.7708 54.1958 54.5312 54.2844C54.2917 54.3677 54.0911 54.4901 53.9297 54.6516C53.7734 54.813 53.6536 55.0109 53.5703 55.2453C53.487 55.4745 53.4401 55.7349 53.4297 56.0266L52.9844 55.9719C52.9844 55.4354 53.0391 54.938 53.1484 54.4797C53.2578 54.0213 53.4167 53.6203 53.625 53.2766C53.8333 52.9328 54.0938 52.6672 54.4062 52.4797C54.724 52.287 55.0885 52.1906 55.5 52.1906C55.6146 52.1906 55.737 52.201 55.8672 52.2219C56.0026 52.2375 56.1094 52.2609 56.1875 52.2922ZM59.3438 54.1516V60.8H57.2812V52.3469H59.2188L59.3438 54.1516ZM59.0156 56.2687H58.4062C58.4115 55.6542 58.4948 55.0969 58.6562 54.5969C58.8177 54.0969 59.0443 53.6672 59.3359 53.3078C59.6328 52.9484 59.9844 52.6724 60.3906 52.4797C60.7969 52.287 61.25 52.1906 61.75 52.1906C62.1562 52.1906 62.5234 52.2479 62.8516 52.3625C63.1797 52.4771 63.4609 52.6594 63.6953 52.9094C63.9349 53.1594 64.1172 53.4875 64.2422 53.8937C64.3724 54.2948 64.4375 54.7896 64.4375 55.3781V60.8H62.3594V55.3625C62.3594 54.9771 62.3021 54.6724 62.1875 54.4484C62.0781 54.2245 61.9167 54.0656 61.7031 53.9719C61.4948 53.8781 61.237 53.8312 60.9297 53.8312C60.612 53.8312 60.3333 53.8963 60.0938 54.0266C59.8594 54.1516 59.6615 54.326 59.5 54.55C59.3438 54.7739 59.224 55.0318 59.1406 55.3234C59.0573 55.6151 59.0156 55.9302 59.0156 56.2687ZM72.1797 55.5656L70.5312 55.1672L71.1641 49.425H77.4219V51.1359H72.875L72.5781 53.7922C72.7396 53.6932 72.974 53.5943 73.2812 53.4953C73.5938 53.3911 73.9453 53.3391 74.3359 53.3391C74.8776 53.3391 75.362 53.4276 75.7891 53.6047C76.2161 53.7766 76.5781 54.0266 76.875 54.3547C77.1771 54.6828 77.4036 55.0838 77.5547 55.5578C77.7109 56.0266 77.7891 56.5578 77.7891 57.1516C77.7891 57.6724 77.7109 58.162 77.5547 58.6203C77.4036 59.0734 77.1719 59.4771 76.8594 59.8312C76.5469 60.1802 76.1536 60.4562 75.6797 60.6594C75.2057 60.8573 74.6484 60.9562 74.0078 60.9562C73.5234 60.9562 73.0573 60.8859 72.6094 60.7453C72.1667 60.5995 71.7682 60.3885 71.4141 60.1125C71.0599 59.8312 70.776 59.4875 70.5625 59.0812C70.3542 58.675 70.2396 58.2088 70.2188 57.6828H72.2578C72.2943 58.0318 72.388 58.3286 72.5391 58.5734C72.6901 58.8182 72.888 59.0057 73.1328 59.1359C73.3828 59.2661 73.6719 59.3312 74 59.3312C74.2969 59.3312 74.5521 59.2766 74.7656 59.1672C74.9844 59.0526 75.1641 58.8937 75.3047 58.6906C75.4453 58.4875 75.5495 58.2479 75.6172 57.9719C75.6849 57.6958 75.7188 57.3937 75.7188 57.0656C75.7188 56.7479 75.6797 56.4588 75.6016 56.1984C75.5234 55.9328 75.4036 55.7036 75.2422 55.5109C75.0807 55.3182 74.8776 55.1698 74.6328 55.0656C74.3932 54.9614 74.112 54.9094 73.7891 54.9094C73.3568 54.9094 73.0234 54.9745 72.7891 55.1047C72.5599 55.2349 72.3568 55.3885 72.1797 55.5656ZM86.8047 54.1359V56.05C86.8047 56.925 86.7161 57.6724 86.5391 58.2922C86.362 58.912 86.1068 59.4198 85.7734 59.8156C85.4401 60.2062 85.0417 60.4953 84.5781 60.6828C84.1146 60.8651 83.599 60.9562 83.0312 60.9562C82.5781 60.9562 82.1562 60.8989 81.7656 60.7844C81.375 60.6646 81.0234 60.4823 80.7109 60.2375C80.4036 59.9875 80.138 59.6698 79.9141 59.2844C79.6953 58.8989 79.526 58.438 79.4062 57.9016C79.2917 57.3651 79.2344 56.7479 79.2344 56.05V54.1359C79.2344 53.2609 79.3229 52.5161 79.5 51.9016C79.6823 51.287 79.9401 50.7844 80.2734 50.3937C80.6068 50.0031 81.0052 49.7193 81.4688 49.5422C81.9323 49.3599 82.4479 49.2687 83.0156 49.2687C83.474 49.2687 83.8958 49.326 84.2812 49.4406C84.6719 49.5552 85.0208 49.7349 85.3281 49.9797C85.6406 50.2193 85.9062 50.5318 86.125 50.9172C86.3438 51.2974 86.5104 51.7557 86.625 52.2922C86.7448 52.8234 86.8047 53.438 86.8047 54.1359ZM84.7422 56.3312V53.8469C84.7422 53.4094 84.7161 53.0292 84.6641 52.7062C84.6172 52.3781 84.5469 52.0995 84.4531 51.8703C84.3594 51.6411 84.2422 51.4562 84.1016 51.3156C83.9609 51.1698 83.7995 51.063 83.6172 50.9953C83.4349 50.9276 83.2344 50.8937 83.0156 50.8937C82.7448 50.8937 82.5026 50.9484 82.2891 51.0578C82.0755 51.162 81.8958 51.3286 81.75 51.5578C81.6042 51.787 81.4922 52.0917 81.4141 52.4719C81.3411 52.8469 81.3047 53.3052 81.3047 53.8469V56.3312C81.3047 56.7687 81.3281 57.1516 81.375 57.4797C81.4271 57.8078 81.5 58.0891 81.5938 58.3234C81.6927 58.5578 81.8099 58.7505 81.9453 58.9016C82.0859 59.0474 82.2474 59.1568 82.4297 59.2297C82.612 59.2974 82.8125 59.3312 83.0312 59.3312C83.3073 59.3312 83.5495 59.2766 83.7578 59.1672C83.9714 59.0578 84.151 58.8859 84.2969 58.6516C84.4427 58.412 84.5521 58.1021 84.625 57.7219C84.7031 57.3364 84.7422 56.8729 84.7422 56.3312ZM95.9453 54.1359V56.05C95.9453 56.925 95.8568 57.6724 95.6797 58.2922C95.5026 58.912 95.2474 59.4198 94.9141 59.8156C94.5807 60.2062 94.1823 60.4953 93.7188 60.6828C93.2552 60.8651 92.7396 60.9562 92.1719 60.9562C91.7188 60.9562 91.2969 60.8989 90.9062 60.7844C90.5156 60.6646 90.1641 60.4823 89.8516 60.2375C89.5443 59.9875 89.2786 59.6698 89.0547 59.2844C88.8359 58.8989 88.6667 58.438 88.5469 57.9016C88.4323 57.3651 88.375 56.7479 88.375 56.05V54.1359C88.375 53.2609 88.4635 52.5161 88.6406 51.9016C88.8229 51.287 89.0807 50.7844 89.4141 50.3937C89.7474 50.0031 90.1458 49.7193 90.6094 49.5422C91.0729 49.3599 91.5885 49.2687 92.1562 49.2687C92.6146 49.2687 93.0365 49.326 93.4219 49.4406C93.8125 49.5552 94.1615 49.7349 94.4688 49.9797C94.7812 50.2193 95.0469 50.5318 95.2656 50.9172C95.4844 51.2974 95.651 51.7557 95.7656 52.2922C95.8854 52.8234 95.9453 53.438 95.9453 54.1359ZM93.8828 56.3312V53.8469C93.8828 53.4094 93.8568 53.0292 93.8047 52.7062C93.7578 52.3781 93.6875 52.0995 93.5938 51.8703C93.5 51.6411 93.3828 51.4562 93.2422 51.3156C93.1016 51.1698 92.9401 51.063 92.7578 50.9953C92.5755 50.9276 92.375 50.8937 92.1562 50.8937C91.8854 50.8937 91.6432 50.9484 91.4297 51.0578C91.2161 51.162 91.0365 51.3286 90.8906 51.5578C90.7448 51.787 90.6328 52.0917 90.5547 52.4719C90.4818 52.8469 90.4453 53.3052 90.4453 53.8469V56.3312C90.4453 56.7687 90.4688 57.1516 90.5156 57.4797C90.5677 57.8078 90.6406 58.0891 90.7344 58.3234C90.8333 58.5578 90.9505 58.7505 91.0859 58.9016C91.2266 59.0474 91.388 59.1568 91.5703 59.2297C91.7526 59.2974 91.9531 59.3312 92.1719 59.3312C92.4479 59.3312 92.6901 59.2766 92.8984 59.1672C93.112 59.0578 93.2917 58.8859 93.4375 58.6516C93.5833 58.412 93.6927 58.1021 93.7656 57.7219C93.8438 57.3364 93.8828 56.8729 93.8828 56.3312ZM103.711 53.9719V64.05H101.641V52.3469H103.555L103.711 53.9719ZM109.141 56.4875V56.6516C109.141 57.2661 109.068 57.8364 108.922 58.3625C108.781 58.8833 108.573 59.3391 108.297 59.7297C108.021 60.1151 107.677 60.4172 107.266 60.6359C106.859 60.8495 106.391 60.9562 105.859 60.9562C105.339 60.9562 104.885 60.8573 104.5 60.6594C104.115 60.4562 103.789 60.1698 103.523 59.8C103.258 59.4302 103.044 59.0005 102.883 58.5109C102.727 58.0161 102.609 57.4771 102.531 56.8937V56.3703C102.609 55.7505 102.727 55.188 102.883 54.6828C103.044 54.1724 103.258 53.7323 103.523 53.3625C103.789 52.9875 104.112 52.6984 104.492 52.4953C104.878 52.2922 105.328 52.1906 105.844 52.1906C106.38 52.1906 106.852 52.2922 107.258 52.4953C107.669 52.6984 108.016 52.9901 108.297 53.3703C108.578 53.7505 108.789 54.2036 108.93 54.7297C109.07 55.2557 109.141 55.8417 109.141 56.4875ZM107.07 56.6516V56.4875C107.07 56.1125 107.036 55.7661 106.969 55.4484C106.901 55.1255 106.797 54.8443 106.656 54.6047C106.516 54.3599 106.333 54.1698 106.109 54.0344C105.885 53.8989 105.615 53.8312 105.297 53.8312C104.979 53.8312 104.706 53.8833 104.477 53.9875C104.247 54.0917 104.06 54.2401 103.914 54.4328C103.768 54.6255 103.654 54.8547 103.57 55.1203C103.492 55.3807 103.44 55.6698 103.414 55.9875V57.2844C103.461 57.6698 103.552 58.0161 103.688 58.3234C103.823 58.6307 104.021 58.8755 104.281 59.0578C104.547 59.2401 104.891 59.3312 105.312 59.3312C105.63 59.3312 105.901 59.2609 106.125 59.1203C106.349 58.9797 106.531 58.787 106.672 58.5422C106.812 58.2922 106.914 58.0057 106.977 57.6828C107.039 57.3599 107.07 57.0161 107.07 56.6516ZM114.445 60.9562C113.805 60.9562 113.229 60.8521 112.719 60.6437C112.208 60.4354 111.773 60.1463 111.414 59.7766C111.06 59.4016 110.786 58.9667 110.594 58.4719C110.406 57.9719 110.312 57.4354 110.312 56.8625V56.55C110.312 55.8989 110.406 55.3078 110.594 54.7766C110.781 54.2401 111.047 53.7792 111.391 53.3937C111.734 53.0083 112.146 52.7114 112.625 52.5031C113.104 52.2948 113.633 52.1906 114.211 52.1906C114.81 52.1906 115.339 52.2922 115.797 52.4953C116.255 52.6932 116.638 52.9745 116.945 53.3391C117.253 53.7036 117.484 54.1411 117.641 54.6516C117.797 55.1568 117.875 55.7167 117.875 56.3312V57.1984H111.25V55.7766H115.844V55.6203C115.833 55.2922 115.771 54.9927 115.656 54.7219C115.542 54.4458 115.365 54.2271 115.125 54.0656C114.885 53.8989 114.576 53.8156 114.195 53.8156C113.888 53.8156 113.62 53.8833 113.391 54.0187C113.167 54.1489 112.979 54.3364 112.828 54.5812C112.682 54.8208 112.573 55.1073 112.5 55.4406C112.427 55.7739 112.391 56.1437 112.391 56.55V56.8625C112.391 57.2167 112.438 57.5448 112.531 57.8469C112.63 58.1489 112.773 58.412 112.961 58.6359C113.154 58.8547 113.383 59.0266 113.648 59.1516C113.919 59.2713 114.227 59.3312 114.57 59.3312C115.003 59.3312 115.393 59.2479 115.742 59.0812C116.096 58.9094 116.404 58.6568 116.664 58.3234L117.703 59.4016C117.526 59.662 117.286 59.912 116.984 60.1516C116.688 60.3911 116.328 60.5864 115.906 60.7375C115.484 60.8833 114.997 60.9562 114.445 60.9562ZM121.32 54.0734V60.8H119.258V52.3469H121.211L121.32 54.0734ZM123.891 52.2922L123.859 54.2141C123.745 54.1932 123.615 54.1776 123.469 54.1672C123.328 54.1568 123.195 54.1516 123.07 54.1516C122.753 54.1516 122.474 54.1958 122.234 54.2844C121.995 54.3677 121.794 54.4901 121.633 54.6516C121.477 54.813 121.357 55.0109 121.273 55.2453C121.19 55.4745 121.143 55.7349 121.133 56.0266L120.688 55.9719C120.688 55.4354 120.742 54.938 120.852 54.4797C120.961 54.0213 121.12 53.6203 121.328 53.2766C121.536 52.9328 121.797 52.6672 122.109 52.4797C122.427 52.287 122.792 52.1906 123.203 52.1906C123.318 52.1906 123.44 52.201 123.57 52.2219C123.706 52.2375 123.812 52.2609 123.891 52.2922ZM131.07 54.0734V60.8H129.008V52.3469H130.961L131.07 54.0734ZM133.641 52.2922L133.609 54.2141C133.495 54.1932 133.365 54.1776 133.219 54.1672C133.078 54.1568 132.945 54.1516 132.82 54.1516C132.503 54.1516 132.224 54.1958 131.984 54.2844C131.745 54.3677 131.544 54.4901 131.383 54.6516C131.227 54.813 131.107 55.0109 131.023 55.2453C130.94 55.4745 130.893 55.7349 130.883 56.0266L130.438 55.9719C130.438 55.4354 130.492 54.938 130.602 54.4797C130.711 54.0213 130.87 53.6203 131.078 53.2766C131.286 52.9328 131.547 52.6672 131.859 52.4797C132.177 52.287 132.542 52.1906 132.953 52.1906C133.068 52.1906 133.19 52.201 133.32 52.2219C133.456 52.2375 133.562 52.2609 133.641 52.2922ZM138.43 60.9562C137.789 60.9562 137.214 60.8521 136.703 60.6437C136.193 60.4354 135.758 60.1463 135.398 59.7766C135.044 59.4016 134.771 58.9667 134.578 58.4719C134.391 57.9719 134.297 57.4354 134.297 56.8625V56.55C134.297 55.8989 134.391 55.3078 134.578 54.7766C134.766 54.2401 135.031 53.7792 135.375 53.3937C135.719 53.0083 136.13 52.7114 136.609 52.5031C137.089 52.2948 137.617 52.1906 138.195 52.1906C138.794 52.1906 139.323 52.2922 139.781 52.4953C140.24 52.6932 140.622 52.9745 140.93 53.3391C141.237 53.7036 141.469 54.1411 141.625 54.6516C141.781 55.1568 141.859 55.7167 141.859 56.3312V57.1984H135.234V55.7766H139.828V55.6203C139.818 55.2922 139.755 54.9927 139.641 54.7219C139.526 54.4458 139.349 54.2271 139.109 54.0656C138.87 53.8989 138.56 53.8156 138.18 53.8156C137.872 53.8156 137.604 53.8833 137.375 54.0187C137.151 54.1489 136.964 54.3364 136.812 54.5812C136.667 54.8208 136.557 55.1073 136.484 55.4406C136.411 55.7739 136.375 56.1437 136.375 56.55V56.8625C136.375 57.2167 136.422 57.5448 136.516 57.8469C136.615 58.1489 136.758 58.412 136.945 58.6359C137.138 58.8547 137.367 59.0266 137.633 59.1516C137.904 59.2713 138.211 59.3312 138.555 59.3312C138.987 59.3312 139.378 59.2479 139.727 59.0812C140.081 58.9094 140.388 58.6568 140.648 58.3234L141.688 59.4016C141.51 59.662 141.271 59.912 140.969 60.1516C140.672 60.3911 140.312 60.5864 139.891 60.7375C139.469 60.8833 138.982 60.9562 138.43 60.9562ZM145.945 60.8H143.867V51.5656C143.867 50.9302 143.99 50.3963 144.234 49.9641C144.479 49.5266 144.828 49.1958 145.281 48.9719C145.734 48.7479 146.268 48.6359 146.883 48.6359C147.086 48.6359 147.279 48.6489 147.461 48.675C147.648 48.701 147.833 48.7375 148.016 48.7844L147.977 50.3547C147.878 50.3286 147.768 50.3104 147.648 50.3C147.534 50.2896 147.406 50.2844 147.266 50.2844C146.984 50.2844 146.745 50.3338 146.547 50.4328C146.349 50.5318 146.198 50.6776 146.094 50.8703C145.995 51.0578 145.945 51.2896 145.945 51.5656V60.8ZM147.656 52.3469V53.8312H142.594V52.3469H147.656ZM152.539 60.9562C151.898 60.9562 151.323 60.8521 150.812 60.6437C150.302 60.4354 149.867 60.1463 149.508 59.7766C149.154 59.4016 148.88 58.9667 148.688 58.4719C148.5 57.9719 148.406 57.4354 148.406 56.8625V56.55C148.406 55.8989 148.5 55.3078 148.688 54.7766C148.875 54.2401 149.141 53.7792 149.484 53.3937C149.828 53.0083 150.24 52.7114 150.719 52.5031C151.198 52.2948 151.727 52.1906 152.305 52.1906C152.904 52.1906 153.432 52.2922 153.891 52.4953C154.349 52.6932 154.732 52.9745 155.039 53.3391C155.346 53.7036 155.578 54.1411 155.734 54.6516C155.891 55.1568 155.969 55.7167 155.969 56.3312V57.1984H149.344V55.7766H153.938V55.6203C153.927 55.2922 153.865 54.9927 153.75 54.7219C153.635 54.4458 153.458 54.2271 153.219 54.0656C152.979 53.8989 152.669 53.8156 152.289 53.8156C151.982 53.8156 151.714 53.8833 151.484 54.0187C151.26 54.1489 151.073 54.3364 150.922 54.5812C150.776 54.8208 150.667 55.1073 150.594 55.4406C150.521 55.7739 150.484 56.1437 150.484 56.55V56.8625C150.484 57.2167 150.531 57.5448 150.625 57.8469C150.724 58.1489 150.867 58.412 151.055 58.6359C151.247 58.8547 151.477 59.0266 151.742 59.1516C152.013 59.2713 152.32 59.3312 152.664 59.3312C153.096 59.3312 153.487 59.2479 153.836 59.0812C154.19 58.9094 154.497 58.6568 154.758 58.3234L155.797 59.4016C155.62 59.662 155.38 59.912 155.078 60.1516C154.781 60.3911 154.422 60.5864 154 60.7375C153.578 60.8833 153.091 60.9562 152.539 60.9562ZM159.414 54.0734V60.8H157.352V52.3469H159.305L159.414 54.0734ZM161.984 52.2922L161.953 54.2141C161.839 54.1932 161.708 54.1776 161.562 54.1672C161.422 54.1568 161.289 54.1516 161.164 54.1516C160.846 54.1516 160.568 54.1958 160.328 54.2844C160.089 54.3677 159.888 54.4901 159.727 54.6516C159.57 54.813 159.451 55.0109 159.367 55.2453C159.284 55.4745 159.237 55.7349 159.227 56.0266L158.781 55.9719C158.781 55.4354 158.836 54.938 158.945 54.4797C159.055 54.0213 159.214 53.6203 159.422 53.2766C159.63 52.9328 159.891 52.6672 160.203 52.4797C160.521 52.287 160.885 52.1906 161.297 52.1906C161.411 52.1906 161.534 52.201 161.664 52.2219C161.799 52.2375 161.906 52.2609 161.984 52.2922ZM165.18 54.0734V60.8H163.117V52.3469H165.07L165.18 54.0734ZM167.75 52.2922L167.719 54.2141C167.604 54.1932 167.474 54.1776 167.328 54.1672C167.188 54.1568 167.055 54.1516 166.93 54.1516C166.612 54.1516 166.333 54.1958 166.094 54.2844C165.854 54.3677 165.654 54.4901 165.492 54.6516C165.336 54.813 165.216 55.0109 165.133 55.2453C165.049 55.4745 165.003 55.7349 164.992 56.0266L164.547 55.9719C164.547 55.4354 164.602 54.938 164.711 54.4797C164.82 54.0213 164.979 53.6203 165.188 53.2766C165.396 52.9328 165.656 52.6672 165.969 52.4797C166.286 52.287 166.651 52.1906 167.062 52.1906C167.177 52.1906 167.299 52.201 167.43 52.2219C167.565 52.2375 167.672 52.2609 167.75 52.2922ZM173.273 59.0031V55.1047C173.273 54.8182 173.224 54.5708 173.125 54.3625C173.026 54.1542 172.875 53.9927 172.672 53.8781C172.469 53.7635 172.211 53.7062 171.898 53.7062C171.622 53.7062 171.38 53.7531 171.172 53.8469C170.969 53.9406 170.812 54.0734 170.703 54.2453C170.594 54.412 170.539 54.6047 170.539 54.8234H168.469C168.469 54.4745 168.552 54.1437 168.719 53.8312C168.885 53.5135 169.122 53.2323 169.43 52.9875C169.742 52.7375 170.115 52.5422 170.547 52.4016C170.984 52.2609 171.474 52.1906 172.016 52.1906C172.656 52.1906 173.227 52.3 173.727 52.5187C174.232 52.7323 174.628 53.0552 174.914 53.4875C175.206 53.9198 175.352 54.4641 175.352 55.1203V58.8078C175.352 59.2297 175.378 59.5917 175.43 59.8937C175.487 60.1906 175.57 60.4484 175.68 60.6672V60.8H173.578C173.479 60.5864 173.404 60.3156 173.352 59.9875C173.299 59.6542 173.273 59.326 173.273 59.0031ZM173.562 55.6516L173.578 56.8781H172.273C171.951 56.8781 171.667 56.912 171.422 56.9797C171.177 57.0422 170.977 57.1359 170.82 57.2609C170.664 57.3807 170.547 57.5266 170.469 57.6984C170.391 57.8651 170.352 58.0552 170.352 58.2687C170.352 58.4771 170.398 58.6646 170.492 58.8312C170.591 58.9979 170.732 59.1307 170.914 59.2297C171.102 59.3234 171.32 59.3703 171.57 59.3703C171.935 59.3703 172.253 59.2974 172.523 59.1516C172.794 59.0005 173.005 58.8182 173.156 58.6047C173.307 58.3911 173.388 58.188 173.398 57.9953L173.992 58.8859C173.919 59.0995 173.81 59.326 173.664 59.5656C173.518 59.8052 173.331 60.0292 173.102 60.2375C172.872 60.4458 172.596 60.6177 172.273 60.7531C171.951 60.8885 171.576 60.9562 171.148 60.9562C170.602 60.9562 170.112 60.8469 169.68 60.6281C169.247 60.4094 168.906 60.1099 168.656 59.7297C168.406 59.3495 168.281 58.9172 168.281 58.4328C168.281 57.9849 168.365 57.5891 168.531 57.2453C168.698 56.9016 168.945 56.6125 169.273 56.3781C169.602 56.1385 170.008 55.9588 170.492 55.8391C170.982 55.7141 171.542 55.6516 172.172 55.6516H173.562ZM179.398 48.8V60.8H177.328V48.8H179.398Z" fill="white"/>
<path d="M34.8359 81.2906V88.4H33.8936V81.2906H34.8359ZM37.3164 84.2448V88.4H36.4131V83.1168H37.2676L37.3164 84.2448ZM37.1016 85.5582L36.7256 85.5436C36.7288 85.1823 36.7826 84.8486 36.8867 84.5426C36.9909 84.2334 37.1374 83.9648 37.3262 83.7369C37.515 83.5091 37.7396 83.3333 38 83.2096C38.2637 83.0826 38.555 83.0192 38.874 83.0192C39.1344 83.0192 39.3688 83.055 39.5771 83.1266C39.7855 83.1949 39.9629 83.3056 40.1094 83.4586C40.2591 83.6116 40.373 83.8102 40.4512 84.0543C40.5293 84.2952 40.5684 84.5898 40.5684 84.9381V88.4H39.6602V84.9283C39.6602 84.6517 39.6195 84.4303 39.5381 84.2643C39.4567 84.095 39.3379 83.9729 39.1816 83.8981C39.0254 83.8199 38.8333 83.7809 38.6055 83.7809C38.3809 83.7809 38.1758 83.8281 37.9902 83.9225C37.8079 84.0169 37.6501 84.1471 37.5166 84.3131C37.3864 84.4791 37.2839 84.6696 37.209 84.8844C37.1374 85.096 37.1016 85.3206 37.1016 85.5582ZM43.5469 87.5846L44.9922 83.1168H45.915L44.0156 88.4H43.4102L43.5469 87.5846ZM42.3408 83.1168L43.8301 87.609L43.9326 88.4H43.3271L41.4131 83.1168H42.3408ZM47.7656 83.1168V88.4H46.8574V83.1168H47.7656ZM46.7891 81.7155C46.7891 81.569 46.833 81.4453 46.9209 81.3444C47.012 81.2434 47.1455 81.193 47.3213 81.193C47.4938 81.193 47.6257 81.2434 47.7168 81.3444C47.8112 81.4453 47.8584 81.569 47.8584 81.7155C47.8584 81.8554 47.8112 81.9759 47.7168 82.0768C47.6257 82.1744 47.4938 82.2233 47.3213 82.2233C47.1455 82.2233 47.012 82.1744 46.9209 82.0768C46.833 81.9759 46.7891 81.8554 46.7891 81.7155ZM51.4277 83.1168V83.8102H48.5713V83.1168H51.4277ZM49.5381 81.8326H50.4414V87.0914C50.4414 87.2705 50.4691 87.4056 50.5244 87.4967C50.5798 87.5878 50.6514 87.6481 50.7393 87.6774C50.8271 87.7067 50.9215 87.7213 51.0225 87.7213C51.0973 87.7213 51.1755 87.7148 51.2568 87.7018C51.3415 87.6855 51.4049 87.6725 51.4473 87.6627L51.4521 88.4C51.3805 88.4228 51.2861 88.444 51.1689 88.4635C51.055 88.4863 50.9167 88.4977 50.7539 88.4977C50.5326 88.4977 50.3291 88.4537 50.1436 88.3658C49.958 88.278 49.8099 88.1315 49.6992 87.9264C49.5918 87.7181 49.5381 87.4381 49.5381 87.0865V81.8326ZM54.6797 88.4977C54.3118 88.4977 53.9782 88.4358 53.6787 88.3121C53.3825 88.1852 53.127 88.0078 52.9121 87.7799C52.7005 87.552 52.5378 87.2819 52.4238 86.9694C52.3099 86.6569 52.2529 86.3151 52.2529 85.944V85.7389C52.2529 85.3092 52.3164 84.9267 52.4434 84.5914C52.5703 84.2529 52.7428 83.9664 52.9609 83.7321C53.179 83.4977 53.4264 83.3203 53.7031 83.1998C53.9798 83.0794 54.2663 83.0192 54.5625 83.0192C54.9401 83.0192 55.2656 83.0843 55.5391 83.2145C55.8158 83.3447 56.042 83.527 56.2178 83.7614C56.3936 83.9925 56.5238 84.2659 56.6084 84.5817C56.693 84.8942 56.7354 85.236 56.7354 85.6071V86.0123H52.79V85.275H55.832V85.2067C55.819 84.9723 55.7702 84.7444 55.6855 84.5231C55.6042 84.3017 55.474 84.1194 55.2949 83.9762C55.1159 83.833 54.8717 83.7614 54.5625 83.7614C54.3574 83.7614 54.1686 83.8053 53.9961 83.8932C53.8236 83.9778 53.6755 84.1048 53.5518 84.274C53.4281 84.4433 53.332 84.65 53.2637 84.8942C53.1953 85.1383 53.1611 85.4199 53.1611 85.7389V85.944C53.1611 86.1946 53.1953 86.4306 53.2637 86.652C53.3353 86.8701 53.4378 87.0621 53.5713 87.2281C53.708 87.3942 53.8724 87.5244 54.0645 87.6188C54.2598 87.7132 54.4811 87.7604 54.7285 87.7604C55.0475 87.7604 55.3177 87.6953 55.5391 87.5651C55.7604 87.4349 55.9541 87.2607 56.1201 87.0426L56.667 87.4772C56.5531 87.6497 56.4082 87.8141 56.2324 87.9703C56.0566 88.1266 55.8402 88.2535 55.583 88.3512C55.3291 88.4489 55.028 88.4977 54.6797 88.4977ZM63.3857 87.4967V84.777C63.3857 84.5686 63.3434 84.388 63.2588 84.235C63.1774 84.0787 63.0537 83.9583 62.8877 83.8737C62.7217 83.789 62.5166 83.7467 62.2725 83.7467C62.0446 83.7467 61.8444 83.7858 61.6719 83.8639C61.5026 83.942 61.3691 84.0446 61.2715 84.1715C61.1771 84.2985 61.1299 84.4352 61.1299 84.5817H60.2266C60.2266 84.3929 60.2754 84.2057 60.373 84.0201C60.4707 83.8346 60.6107 83.667 60.793 83.5172C60.9785 83.3642 61.1999 83.2438 61.457 83.1559C61.7174 83.0647 62.0072 83.0192 62.3262 83.0192C62.7103 83.0192 63.0488 83.0843 63.3418 83.2145C63.638 83.3447 63.8691 83.5416 64.0352 83.8053C64.2044 84.0657 64.2891 84.3929 64.2891 84.7867V87.2477C64.2891 87.4235 64.3037 87.6106 64.333 87.8092C64.3656 88.0078 64.4128 88.1787 64.4746 88.3219V88.4H63.5322C63.4867 88.2959 63.4508 88.1575 63.4248 87.985C63.3988 87.8092 63.3857 87.6464 63.3857 87.4967ZM63.542 85.1969L63.5518 85.8317H62.6387C62.3815 85.8317 62.152 85.8528 61.9502 85.8951C61.7484 85.9342 61.5791 85.9944 61.4424 86.0758C61.3057 86.1572 61.2015 86.2597 61.1299 86.3834C61.0583 86.5039 61.0225 86.6455 61.0225 86.8082C61.0225 86.9742 61.0599 87.1256 61.1348 87.2623C61.2096 87.399 61.3219 87.5081 61.4717 87.5895C61.6247 87.6676 61.8118 87.7067 62.0332 87.7067C62.3099 87.7067 62.554 87.6481 62.7656 87.5309C62.9772 87.4137 63.1449 87.2705 63.2686 87.1012C63.3955 86.9319 63.4639 86.7675 63.4736 86.608L63.8594 87.0426C63.8366 87.1793 63.7747 87.3307 63.6738 87.4967C63.5729 87.6627 63.4378 87.8222 63.2686 87.9752C63.1025 88.125 62.904 88.2503 62.6729 88.3512C62.445 88.4489 62.1878 88.4977 61.9014 88.4977C61.5433 88.4977 61.2292 88.4277 60.959 88.2877C60.6921 88.1477 60.4837 87.9606 60.334 87.7262C60.1875 87.4886 60.1143 87.2233 60.1143 86.9303C60.1143 86.6471 60.1696 86.3981 60.2803 86.1832C60.391 85.9651 60.5505 85.7845 60.7588 85.6412C60.9671 85.4948 61.2178 85.3841 61.5107 85.3092C61.8037 85.2343 62.1309 85.1969 62.4922 85.1969H63.542ZM69.5381 88.4H68.6348V82.5602C68.6348 82.1793 68.7031 81.8587 68.8398 81.5983C68.9798 81.3346 69.18 81.136 69.4404 81.0026C69.7008 80.8658 70.0101 80.7975 70.3682 80.7975C70.4723 80.7975 70.5765 80.804 70.6807 80.817C70.7881 80.83 70.8923 80.8496 70.9932 80.8756L70.9443 81.6129C70.876 81.5966 70.7979 81.5852 70.71 81.5787C70.6253 81.5722 70.5407 81.569 70.4561 81.569C70.264 81.569 70.098 81.608 69.958 81.6862C69.8213 81.761 69.7171 81.8717 69.6455 82.0182C69.5739 82.1647 69.5381 82.3453 69.5381 82.5602V88.4ZM70.6611 83.1168V83.8102H67.7998V83.1168H70.6611ZM72.5703 83.9469V88.4H71.667V83.1168H72.5459L72.5703 83.9469ZM74.2207 83.0875L74.2158 83.9274C74.141 83.9111 74.0693 83.9013 74.001 83.8981C73.9359 83.8916 73.861 83.8883 73.7764 83.8883C73.568 83.8883 73.3841 83.9209 73.2246 83.986C73.0651 84.0511 72.93 84.1422 72.8193 84.2594C72.7087 84.3766 72.6208 84.5166 72.5557 84.6793C72.4938 84.8388 72.4531 85.0146 72.4336 85.2067L72.1797 85.3531C72.1797 85.0341 72.2106 84.7347 72.2725 84.4547C72.3376 84.1748 72.4368 83.9274 72.5703 83.7125C72.7038 83.4944 72.873 83.3252 73.0781 83.2047C73.2865 83.081 73.5339 83.0192 73.8203 83.0192C73.8854 83.0192 73.9603 83.0273 74.0449 83.0436C74.1296 83.0566 74.1882 83.0712 74.2207 83.0875ZM76.0371 83.1168V88.4H75.1289V83.1168H76.0371ZM75.0605 81.7155C75.0605 81.569 75.1045 81.4453 75.1924 81.3444C75.2835 81.2434 75.417 81.193 75.5928 81.193C75.7653 81.193 75.8971 81.2434 75.9883 81.3444C76.0827 81.4453 76.1299 81.569 76.1299 81.7155C76.1299 81.8554 76.0827 81.9759 75.9883 82.0768C75.8971 82.1744 75.7653 82.2233 75.5928 82.2233C75.417 82.2233 75.2835 82.1744 75.1924 82.0768C75.1045 81.9759 75.0605 81.8554 75.0605 81.7155ZM79.6797 88.4977C79.3118 88.4977 78.9782 88.4358 78.6787 88.3121C78.3825 88.1852 78.127 88.0078 77.9121 87.7799C77.7005 87.552 77.5378 87.2819 77.4238 86.9694C77.3099 86.6569 77.2529 86.3151 77.2529 85.944V85.7389C77.2529 85.3092 77.3164 84.9267 77.4434 84.5914C77.5703 84.2529 77.7428 83.9664 77.9609 83.7321C78.179 83.4977 78.4264 83.3203 78.7031 83.1998C78.9798 83.0794 79.2663 83.0192 79.5625 83.0192C79.9401 83.0192 80.2656 83.0843 80.5391 83.2145C80.8158 83.3447 81.042 83.527 81.2178 83.7614C81.3936 83.9925 81.5238 84.2659 81.6084 84.5817C81.693 84.8942 81.7354 85.236 81.7354 85.6071V86.0123H77.79V85.275H80.832V85.2067C80.819 84.9723 80.7702 84.7444 80.6855 84.5231C80.6042 84.3017 80.474 84.1194 80.2949 83.9762C80.1159 83.833 79.8717 83.7614 79.5625 83.7614C79.3574 83.7614 79.1686 83.8053 78.9961 83.8932C78.8236 83.9778 78.6755 84.1048 78.5518 84.274C78.4281 84.4433 78.332 84.65 78.2637 84.8942C78.1953 85.1383 78.1611 85.4199 78.1611 85.7389V85.944C78.1611 86.1946 78.1953 86.4306 78.2637 86.652C78.3353 86.8701 78.4378 87.0621 78.5713 87.2281C78.708 87.3942 78.8724 87.5244 79.0645 87.6188C79.2598 87.7132 79.4811 87.7604 79.7285 87.7604C80.0475 87.7604 80.3177 87.6953 80.5391 87.5651C80.7604 87.4349 80.9541 87.2607 81.1201 87.0426L81.667 87.4772C81.5531 87.6497 81.4082 87.8141 81.2324 87.9703C81.0566 88.1266 80.8402 88.2535 80.583 88.3512C80.3291 88.4489 80.028 88.4977 79.6797 88.4977ZM83.6934 84.2448V88.4H82.79V83.1168H83.6445L83.6934 84.2448ZM83.4785 85.5582L83.1025 85.5436C83.1058 85.1823 83.1595 84.8486 83.2637 84.5426C83.3678 84.2334 83.5143 83.9648 83.7031 83.7369C83.8919 83.5091 84.1165 83.3333 84.377 83.2096C84.6406 83.0826 84.932 83.0192 85.251 83.0192C85.5114 83.0192 85.7458 83.055 85.9541 83.1266C86.1624 83.1949 86.3398 83.3056 86.4863 83.4586C86.6361 83.6116 86.75 83.8102 86.8281 84.0543C86.9062 84.2952 86.9453 84.5898 86.9453 84.9381V88.4H86.0371V84.9283C86.0371 84.6517 85.9964 84.4303 85.915 84.2643C85.8337 84.095 85.7148 83.9729 85.5586 83.8981C85.4023 83.8199 85.2103 83.7809 84.9824 83.7809C84.7578 83.7809 84.5527 83.8281 84.3672 83.9225C84.1849 84.0169 84.027 84.1471 83.8936 84.3131C83.7633 84.4791 83.6608 84.6696 83.5859 84.8844C83.5143 85.096 83.4785 85.3206 83.4785 85.5582ZM91.6475 87.3746V80.9H92.5557V88.4H91.7256L91.6475 87.3746ZM88.0928 85.817V85.7145C88.0928 85.3108 88.1416 84.9446 88.2393 84.6158C88.3402 84.2838 88.4818 83.999 88.6641 83.7614C88.8496 83.5237 89.0693 83.3414 89.3232 83.2145C89.5804 83.0843 89.8669 83.0192 90.1826 83.0192C90.5146 83.0192 90.8044 83.0778 91.0518 83.1949C91.3024 83.3089 91.514 83.4765 91.6865 83.6979C91.8623 83.916 92.0007 84.1796 92.1016 84.4889C92.2025 84.7981 92.2725 85.1481 92.3115 85.5387V85.9879C92.2757 86.3753 92.2057 86.7236 92.1016 87.0328C92.0007 87.3421 91.8623 87.6058 91.6865 87.8239C91.514 88.042 91.3024 88.2096 91.0518 88.3268C90.8011 88.4407 90.5081 88.4977 90.1729 88.4977C89.8636 88.4977 89.5804 88.4309 89.3232 88.2975C89.0693 88.164 88.8496 87.9768 88.6641 87.736C88.4818 87.4951 88.3402 87.2119 88.2393 86.8864C88.1416 86.5576 88.0928 86.2011 88.0928 85.817ZM89.001 85.7145V85.817C89.001 86.0807 89.027 86.3281 89.0791 86.5592C89.1344 86.7903 89.2191 86.9938 89.333 87.1696C89.4469 87.3453 89.5918 87.4837 89.7676 87.5846C89.9434 87.6823 90.1533 87.7311 90.3975 87.7311C90.6969 87.7311 90.9427 87.6676 91.1348 87.5406C91.3301 87.4137 91.4863 87.2461 91.6035 87.0377C91.7207 86.8294 91.8118 86.6031 91.877 86.359V85.1823C91.8379 85.0032 91.7809 84.8307 91.7061 84.6647C91.6344 84.4954 91.54 84.3457 91.4229 84.2155C91.3089 84.082 91.1673 83.9762 90.998 83.8981C90.832 83.8199 90.6351 83.7809 90.4072 83.7809C90.1598 83.7809 89.9466 83.833 89.7676 83.9371C89.5918 84.038 89.4469 84.178 89.333 84.3571C89.2191 84.5328 89.1344 84.7379 89.0791 84.9723C89.027 85.2034 89.001 85.4508 89.001 85.7145ZM98.6543 83.1168V83.8102H95.7979V83.1168H98.6543ZM96.7646 81.8326H97.668V87.0914C97.668 87.2705 97.6956 87.4056 97.751 87.4967C97.8063 87.5878 97.8779 87.6481 97.9658 87.6774C98.0537 87.7067 98.1481 87.7213 98.249 87.7213C98.3239 87.7213 98.402 87.7148 98.4834 87.7018C98.568 87.6855 98.6315 87.6725 98.6738 87.6627L98.6787 88.4C98.6071 88.4228 98.5127 88.444 98.3955 88.4635C98.2816 88.4863 98.1432 88.4977 97.9805 88.4977C97.7591 88.4977 97.5557 88.4537 97.3701 88.3658C97.1846 88.278 97.0365 88.1315 96.9258 87.9264C96.8184 87.7181 96.7646 87.4381 96.7646 87.0865V81.8326ZM99.377 85.817V85.7047C99.377 85.3239 99.4323 84.9707 99.543 84.6451C99.6536 84.3164 99.8132 84.0315 100.021 83.7906C100.23 83.5465 100.482 83.3577 100.778 83.2242C101.075 83.0875 101.407 83.0192 101.774 83.0192C102.146 83.0192 102.479 83.0875 102.775 83.2242C103.075 83.3577 103.329 83.5465 103.537 83.7906C103.749 84.0315 103.91 84.3164 104.021 84.6451C104.131 84.9707 104.187 85.3239 104.187 85.7047V85.817C104.187 86.1979 104.131 86.5511 104.021 86.8766C103.91 87.2021 103.749 87.4869 103.537 87.7311C103.329 87.972 103.076 88.1608 102.78 88.2975C102.487 88.4309 102.155 88.4977 101.784 88.4977C101.413 88.4977 101.079 88.4309 100.783 88.2975C100.487 88.1608 100.233 87.972 100.021 87.7311C99.8132 87.4869 99.6536 87.2021 99.543 86.8766C99.4323 86.5511 99.377 86.1979 99.377 85.817ZM100.28 85.7047V85.817C100.28 86.0807 100.311 86.3297 100.373 86.5641C100.435 86.7952 100.528 87.0003 100.651 87.1793C100.778 87.3584 100.936 87.5 101.125 87.6041C101.314 87.705 101.534 87.7555 101.784 87.7555C102.032 87.7555 102.248 87.705 102.434 87.6041C102.622 87.5 102.779 87.3584 102.902 87.1793C103.026 87.0003 103.119 86.7952 103.181 86.5641C103.246 86.3297 103.278 86.0807 103.278 85.817V85.7047C103.278 85.4443 103.246 85.1985 103.181 84.9674C103.119 84.733 103.024 84.5263 102.897 84.3473C102.774 84.165 102.618 84.0218 102.429 83.9176C102.243 83.8134 102.025 83.7614 101.774 83.7614C101.527 83.7614 101.309 83.8134 101.12 83.9176C100.935 84.0218 100.778 84.165 100.651 84.3473C100.528 84.5263 100.435 84.733 100.373 84.9674C100.311 85.1985 100.28 85.4443 100.28 85.7047ZM110.915 87.4967V84.777C110.915 84.5686 110.873 84.388 110.788 84.235C110.707 84.0787 110.583 83.9583 110.417 83.8737C110.251 83.789 110.046 83.7467 109.802 83.7467C109.574 83.7467 109.374 83.7858 109.201 83.8639C109.032 83.942 108.898 84.0446 108.801 84.1715C108.706 84.2985 108.659 84.4352 108.659 84.5817H107.756C107.756 84.3929 107.805 84.2057 107.902 84.0201C108 83.8346 108.14 83.667 108.322 83.5172C108.508 83.3642 108.729 83.2438 108.986 83.1559C109.247 83.0647 109.536 83.0192 109.855 83.0192C110.24 83.0192 110.578 83.0843 110.871 83.2145C111.167 83.3447 111.398 83.5416 111.564 83.8053C111.734 84.0657 111.818 84.3929 111.818 84.7867V87.2477C111.818 87.4235 111.833 87.6106 111.862 87.8092C111.895 88.0078 111.942 88.1787 112.004 88.3219V88.4H111.062C111.016 88.2959 110.98 88.1575 110.954 87.985C110.928 87.8092 110.915 87.6464 110.915 87.4967ZM111.071 85.1969L111.081 85.8317H110.168C109.911 85.8317 109.681 85.8528 109.479 85.8951C109.278 85.9342 109.108 85.9944 108.972 86.0758C108.835 86.1572 108.731 86.2597 108.659 86.3834C108.588 86.5039 108.552 86.6455 108.552 86.8082C108.552 86.9742 108.589 87.1256 108.664 87.2623C108.739 87.399 108.851 87.5081 109.001 87.5895C109.154 87.6676 109.341 87.7067 109.562 87.7067C109.839 87.7067 110.083 87.6481 110.295 87.5309C110.507 87.4137 110.674 87.2705 110.798 87.1012C110.925 86.9319 110.993 86.7675 111.003 86.608L111.389 87.0426C111.366 87.1793 111.304 87.3307 111.203 87.4967C111.102 87.6627 110.967 87.8222 110.798 87.9752C110.632 88.125 110.433 88.2503 110.202 88.3512C109.974 88.4489 109.717 88.4977 109.431 88.4977C109.073 88.4977 108.758 88.4277 108.488 88.2877C108.221 88.1477 108.013 87.9606 107.863 87.7262C107.717 87.4886 107.644 87.2233 107.644 86.9303C107.644 86.6471 107.699 86.3981 107.81 86.1832C107.92 85.9651 108.08 85.7845 108.288 85.6412C108.496 85.4948 108.747 85.3841 109.04 85.3092C109.333 85.2343 109.66 85.1969 110.021 85.1969H111.071ZM114.143 84.2448V88.4H113.239V83.1168H114.094L114.143 84.2448ZM113.928 85.5582L113.552 85.5436C113.555 85.1823 113.609 84.8486 113.713 84.5426C113.817 84.2334 113.964 83.9648 114.152 83.7369C114.341 83.5091 114.566 83.3333 114.826 83.2096C115.09 83.0826 115.381 83.0192 115.7 83.0192C115.961 83.0192 116.195 83.055 116.403 83.1266C116.612 83.1949 116.789 83.3056 116.936 83.4586C117.085 83.6116 117.199 83.8102 117.277 84.0543C117.355 84.2952 117.395 84.5898 117.395 84.9381V88.4H116.486V84.9283C116.486 84.6517 116.446 84.4303 116.364 84.2643C116.283 84.095 116.164 83.9729 116.008 83.8981C115.852 83.8199 115.66 83.7809 115.432 83.7809C115.207 83.7809 115.002 83.8281 114.816 83.9225C114.634 84.0169 114.476 84.1471 114.343 84.3131C114.213 84.4791 114.11 84.6696 114.035 84.8844C113.964 85.096 113.928 85.3206 113.928 85.5582ZM120.251 87.8531L121.721 83.1168H122.688L120.568 89.2155C120.52 89.3457 120.454 89.4856 120.373 89.6354C120.295 89.7884 120.194 89.9332 120.07 90.0699C119.947 90.2067 119.797 90.3173 119.621 90.402C119.449 90.4899 119.242 90.5338 119.001 90.5338C118.929 90.5338 118.838 90.524 118.728 90.5045C118.617 90.485 118.539 90.4687 118.493 90.4557L118.488 89.7233C118.514 89.7265 118.555 89.7298 118.61 89.733C118.669 89.7395 118.71 89.7428 118.732 89.7428C118.938 89.7428 119.112 89.7151 119.255 89.6598C119.398 89.6077 119.519 89.5182 119.616 89.3912C119.717 89.2675 119.803 89.0966 119.875 88.8785L120.251 87.8531ZM119.172 83.1168L120.544 87.2184L120.778 88.1705L120.129 88.5026L118.186 83.1168H119.172ZM127.99 86.2516L129.401 81.2906H130.085L129.689 83.2194L128.171 88.4H127.492L127.99 86.2516ZM126.53 81.2906L127.653 86.1539L127.99 88.4H127.316L125.593 81.2906H126.53ZM131.911 86.149L133.01 81.2906H133.952L132.233 88.4H131.56L131.911 86.149ZM130.188 81.2906L131.56 86.2516L132.058 88.4H131.379L129.914 83.2194L129.514 81.2906H130.188ZM136.906 88.4977C136.538 88.4977 136.205 88.4358 135.905 88.3121C135.609 88.1852 135.354 88.0078 135.139 87.7799C134.927 87.552 134.764 87.2819 134.65 86.9694C134.536 86.6569 134.479 86.3151 134.479 85.944V85.7389C134.479 85.3092 134.543 84.9267 134.67 84.5914C134.797 84.2529 134.969 83.9664 135.188 83.7321C135.406 83.4977 135.653 83.3203 135.93 83.1998C136.206 83.0794 136.493 83.0192 136.789 83.0192C137.167 83.0192 137.492 83.0843 137.766 83.2145C138.042 83.3447 138.269 83.527 138.444 83.7614C138.62 83.9925 138.75 84.2659 138.835 84.5817C138.92 84.8942 138.962 85.236 138.962 85.6071V86.0123H135.017V85.275H138.059V85.2067C138.046 84.9723 137.997 84.7444 137.912 84.5231C137.831 84.3017 137.701 84.1194 137.521 83.9762C137.342 83.833 137.098 83.7614 136.789 83.7614C136.584 83.7614 136.395 83.8053 136.223 83.8932C136.05 83.9778 135.902 84.1048 135.778 84.274C135.655 84.4433 135.559 84.65 135.49 84.8942C135.422 85.1383 135.388 85.4199 135.388 85.7389V85.944C135.388 86.1946 135.422 86.4306 135.49 86.652C135.562 86.8701 135.664 87.0621 135.798 87.2281C135.935 87.3942 136.099 87.5244 136.291 87.6188C136.486 87.7132 136.708 87.7604 136.955 87.7604C137.274 87.7604 137.544 87.6953 137.766 87.5651C137.987 87.4349 138.181 87.2607 138.347 87.0426L138.894 87.4772C138.78 87.6497 138.635 87.8141 138.459 87.9703C138.283 88.1266 138.067 88.2535 137.81 88.3512C137.556 88.4489 137.255 88.4977 136.906 88.4977ZM143.132 87.4967V84.777C143.132 84.5686 143.09 84.388 143.005 84.235C142.924 84.0787 142.8 83.9583 142.634 83.8737C142.468 83.789 142.263 83.7467 142.019 83.7467C141.791 83.7467 141.59 83.7858 141.418 83.8639C141.249 83.942 141.115 84.0446 141.018 84.1715C140.923 84.2985 140.876 84.4352 140.876 84.5817H139.973C139.973 84.3929 140.021 84.2057 140.119 84.0201C140.217 83.8346 140.357 83.667 140.539 83.5172C140.725 83.3642 140.946 83.2438 141.203 83.1559C141.464 83.0647 141.753 83.0192 142.072 83.0192C142.456 83.0192 142.795 83.0843 143.088 83.2145C143.384 83.3447 143.615 83.5416 143.781 83.8053C143.951 84.0657 144.035 84.3929 144.035 84.7867V87.2477C144.035 87.4235 144.05 87.6106 144.079 87.8092C144.112 88.0078 144.159 88.1787 144.221 88.3219V88.4H143.278C143.233 88.2959 143.197 88.1575 143.171 87.985C143.145 87.8092 143.132 87.6464 143.132 87.4967ZM143.288 85.1969L143.298 85.8317H142.385C142.128 85.8317 141.898 85.8528 141.696 85.8951C141.494 85.9342 141.325 85.9944 141.188 86.0758C141.052 86.1572 140.948 86.2597 140.876 86.3834C140.804 86.5039 140.769 86.6455 140.769 86.8082C140.769 86.9742 140.806 87.1256 140.881 87.2623C140.956 87.399 141.068 87.5081 141.218 87.5895C141.371 87.6676 141.558 87.7067 141.779 87.7067C142.056 87.7067 142.3 87.6481 142.512 87.5309C142.723 87.4137 142.891 87.2705 143.015 87.1012C143.142 86.9319 143.21 86.7675 143.22 86.608L143.605 87.0426C143.583 87.1793 143.521 87.3307 143.42 87.4967C143.319 87.6627 143.184 87.8222 143.015 87.9752C142.849 88.125 142.65 88.2503 142.419 88.3512C142.191 88.4489 141.934 88.4977 141.647 88.4977C141.289 88.4977 140.975 88.4277 140.705 88.2877C140.438 88.1477 140.23 87.9606 140.08 87.7262C139.934 87.4886 139.86 87.2233 139.86 86.9303C139.86 86.6471 139.916 86.3981 140.026 86.1832C140.137 85.9651 140.297 85.7845 140.505 85.6412C140.713 85.4948 140.964 85.3841 141.257 85.3092C141.55 85.2343 141.877 85.1969 142.238 85.1969H143.288ZM146.359 83.9469V88.4H145.456V83.1168H146.335L146.359 83.9469ZM148.01 83.0875L148.005 83.9274C147.93 83.9111 147.858 83.9013 147.79 83.8981C147.725 83.8916 147.65 83.8883 147.565 83.8883C147.357 83.8883 147.173 83.9209 147.014 83.986C146.854 84.0511 146.719 84.1422 146.608 84.2594C146.498 84.3766 146.41 84.5166 146.345 84.6793C146.283 84.8388 146.242 85.0146 146.223 85.2067L145.969 85.3531C145.969 85.0341 146 84.7347 146.062 84.4547C146.127 84.1748 146.226 83.9274 146.359 83.7125C146.493 83.4944 146.662 83.3252 146.867 83.2047C147.076 83.081 147.323 83.0192 147.609 83.0192C147.674 83.0192 147.749 83.0273 147.834 83.0436C147.919 83.0566 147.977 83.0712 148.01 83.0875ZM149.826 83.1168V88.4H148.918V83.1168H149.826ZM148.85 81.7155C148.85 81.569 148.894 81.4453 148.981 81.3444C149.073 81.2434 149.206 81.193 149.382 81.193C149.554 81.193 149.686 81.2434 149.777 81.3444C149.872 81.4453 149.919 81.569 149.919 81.7155C149.919 81.8554 149.872 81.9759 149.777 82.0768C149.686 82.1744 149.554 82.2233 149.382 82.2233C149.206 82.2233 149.073 82.1744 148.981 82.0768C148.894 81.9759 148.85 81.8554 148.85 81.7155ZM152.624 88.4H151.721V82.5602C151.721 82.1793 151.789 81.8587 151.926 81.5983C152.066 81.3346 152.266 81.136 152.526 81.0026C152.787 80.8658 153.096 80.7975 153.454 80.7975C153.558 80.7975 153.662 80.804 153.767 80.817C153.874 80.83 153.978 80.8496 154.079 80.8756L154.03 81.6129C153.962 81.5966 153.884 81.5852 153.796 81.5787C153.711 81.5722 153.627 81.569 153.542 81.569C153.35 81.569 153.184 81.608 153.044 81.6862C152.907 81.761 152.803 81.8717 152.731 82.0182C152.66 82.1647 152.624 82.3453 152.624 82.5602V88.4ZM153.747 83.1168V83.8102H150.886V83.1168H153.747ZM156.237 87.8531L157.707 83.1168H158.674L156.555 89.2155C156.506 89.3457 156.441 89.4856 156.359 89.6354C156.281 89.7884 156.18 89.9332 156.057 90.0699C155.933 90.2067 155.783 90.3173 155.607 90.402C155.435 90.4899 155.228 90.5338 154.987 90.5338C154.916 90.5338 154.825 90.524 154.714 90.5045C154.603 90.485 154.525 90.4687 154.479 90.4557L154.475 89.7233C154.501 89.7265 154.541 89.7298 154.597 89.733C154.655 89.7395 154.696 89.7428 154.719 89.7428C154.924 89.7428 155.098 89.7151 155.241 89.6598C155.384 89.6077 155.505 89.5182 155.603 89.3912C155.703 89.2675 155.79 89.0966 155.861 88.8785L156.237 87.8531ZM155.158 83.1168L156.53 87.2184L156.765 88.1705L156.115 88.5026L154.172 83.1168H155.158ZM163.85 85.0065V85.7487H161.467V85.0065H163.85ZM168.117 84.1324V90.4313H167.209V83.1168H168.039L168.117 84.1324ZM171.677 85.7145V85.817C171.677 86.2011 171.631 86.5576 171.54 86.8864C171.449 87.2119 171.315 87.4951 171.14 87.736C170.967 87.9768 170.754 88.164 170.5 88.2975C170.246 88.4309 169.955 88.4977 169.626 88.4977C169.291 88.4977 168.994 88.4423 168.737 88.3317C168.48 88.221 168.262 88.0599 168.083 87.8483C167.904 87.6367 167.761 87.3828 167.653 87.0865C167.549 86.7903 167.478 86.4567 167.438 86.0856V85.5387C167.478 85.1481 167.551 84.7981 167.658 84.4889C167.766 84.1796 167.907 83.916 168.083 83.6979C168.262 83.4765 168.479 83.3089 168.732 83.1949C168.986 83.0778 169.279 83.0192 169.611 83.0192C169.943 83.0192 170.238 83.0843 170.495 83.2145C170.752 83.3414 170.969 83.5237 171.145 83.7614C171.32 83.999 171.452 84.2838 171.54 84.6158C171.631 84.9446 171.677 85.3108 171.677 85.7145ZM170.769 85.817V85.7145C170.769 85.4508 170.741 85.2034 170.686 84.9723C170.63 84.7379 170.544 84.5328 170.427 84.3571C170.313 84.178 170.166 84.038 169.987 83.9371C169.808 83.833 169.595 83.7809 169.348 83.7809C169.12 83.7809 168.921 83.8199 168.752 83.8981C168.586 83.9762 168.444 84.082 168.327 84.2155C168.21 84.3457 168.114 84.4954 168.039 84.6647C167.967 84.8307 167.914 85.0032 167.878 85.1823V86.4469C167.943 86.6748 168.034 86.8896 168.151 87.0914C168.269 87.29 168.425 87.4511 168.62 87.5748C168.815 87.6953 169.061 87.7555 169.357 87.7555C169.602 87.7555 169.812 87.705 169.987 87.6041C170.166 87.5 170.313 87.3584 170.427 87.1793C170.544 87.0003 170.63 86.7952 170.686 86.5641C170.741 86.3297 170.769 86.0807 170.769 85.817ZM172.59 85.817V85.7047C172.59 85.3239 172.645 84.9707 172.756 84.6451C172.867 84.3164 173.026 84.0315 173.234 83.7906C173.443 83.5465 173.695 83.3577 173.991 83.2242C174.287 83.0875 174.619 83.0192 174.987 83.0192C175.358 83.0192 175.692 83.0875 175.988 83.2242C176.288 83.3577 176.542 83.5465 176.75 83.7906C176.962 84.0315 177.123 84.3164 177.233 84.6451C177.344 84.9707 177.399 85.3239 177.399 85.7047V85.817C177.399 86.1979 177.344 86.5511 177.233 86.8766C177.123 87.2021 176.962 87.4869 176.75 87.7311C176.542 87.972 176.289 88.1608 175.993 88.2975C175.7 88.4309 175.368 88.4977 174.997 88.4977C174.626 88.4977 174.292 88.4309 173.996 88.2975C173.7 88.1608 173.446 87.972 173.234 87.7311C173.026 87.4869 172.867 87.2021 172.756 86.8766C172.645 86.5511 172.59 86.1979 172.59 85.817ZM173.493 85.7047V85.817C173.493 86.0807 173.524 86.3297 173.586 86.5641C173.648 86.7952 173.741 87.0003 173.864 87.1793C173.991 87.3584 174.149 87.5 174.338 87.6041C174.527 87.705 174.746 87.7555 174.997 87.7555C175.244 87.7555 175.461 87.705 175.646 87.6041C175.835 87.5 175.992 87.3584 176.115 87.1793C176.239 87.0003 176.332 86.7952 176.394 86.5641C176.459 86.3297 176.491 86.0807 176.491 85.817V85.7047C176.491 85.4443 176.459 85.1985 176.394 84.9674C176.332 84.733 176.237 84.5263 176.11 84.3473C175.987 84.165 175.83 84.0218 175.642 83.9176C175.456 83.8134 175.238 83.7614 174.987 83.7614C174.74 83.7614 174.522 83.8134 174.333 83.9176C174.147 84.0218 173.991 84.165 173.864 84.3473C173.741 84.5263 173.648 84.733 173.586 84.9674C173.524 85.1985 173.493 85.4443 173.493 85.7047ZM179.87 87.4625L181.228 83.1168H181.823L181.706 83.9811L180.324 88.4H179.743L179.87 87.4625ZM178.957 83.1168L180.114 87.5114L180.197 88.4H179.587L178.054 83.1168H178.957ZM183.122 87.4772L184.226 83.1168H185.124L183.591 88.4H182.985L183.122 87.4772ZM181.955 83.1168L183.283 87.3893L183.435 88.4H182.858L181.438 83.9713L181.32 83.1168H181.955ZM188.244 88.4977C187.876 88.4977 187.543 88.4358 187.243 88.3121C186.947 88.1852 186.691 88.0078 186.477 87.7799C186.265 87.552 186.102 87.2819 185.988 86.9694C185.874 86.6569 185.817 86.3151 185.817 85.944V85.7389C185.817 85.3092 185.881 84.9267 186.008 84.5914C186.135 84.2529 186.307 83.9664 186.525 83.7321C186.743 83.4977 186.991 83.3203 187.268 83.1998C187.544 83.0794 187.831 83.0192 188.127 83.0192C188.505 83.0192 188.83 83.0843 189.104 83.2145C189.38 83.3447 189.606 83.527 189.782 83.7614C189.958 83.9925 190.088 84.2659 190.173 84.5817C190.257 84.8942 190.3 85.236 190.3 85.6071V86.0123H186.354V85.275H189.396V85.2067C189.383 84.9723 189.335 84.7444 189.25 84.5231C189.169 84.3017 189.038 84.1194 188.859 83.9762C188.68 83.833 188.436 83.7614 188.127 83.7614C187.922 83.7614 187.733 83.8053 187.561 83.8932C187.388 83.9778 187.24 84.1048 187.116 84.274C186.993 84.4433 186.896 84.65 186.828 84.8942C186.76 85.1383 186.726 85.4199 186.726 85.7389V85.944C186.726 86.1946 186.76 86.4306 186.828 86.652C186.9 86.8701 187.002 87.0621 187.136 87.2281C187.272 87.3942 187.437 87.5244 187.629 87.6188C187.824 87.7132 188.046 87.7604 188.293 87.7604C188.612 87.7604 188.882 87.6953 189.104 87.5651C189.325 87.4349 189.519 87.2607 189.685 87.0426L190.231 87.4772C190.118 87.6497 189.973 87.8141 189.797 87.9703C189.621 88.1266 189.405 88.2535 189.147 88.3512C188.894 88.4489 188.592 88.4977 188.244 88.4977ZM192.258 83.9469V88.4H191.354V83.1168H192.233L192.258 83.9469ZM193.908 83.0875L193.903 83.9274C193.828 83.9111 193.757 83.9013 193.688 83.8981C193.623 83.8916 193.549 83.8883 193.464 83.8883C193.256 83.8883 193.072 83.9209 192.912 83.986C192.753 84.0511 192.618 84.1422 192.507 84.2594C192.396 84.3766 192.308 84.5166 192.243 84.6793C192.181 84.8388 192.141 85.0146 192.121 85.2067L191.867 85.3531C191.867 85.0341 191.898 84.7347 191.96 84.4547C192.025 84.1748 192.124 83.9274 192.258 83.7125C192.391 83.4944 192.561 83.3252 192.766 83.2047C192.974 83.081 193.221 83.0192 193.508 83.0192C193.573 83.0192 193.648 83.0273 193.732 83.0436C193.817 83.0566 193.876 83.0712 193.908 83.0875ZM196.848 88.4977C196.48 88.4977 196.146 88.4358 195.847 88.3121C195.55 88.1852 195.295 88.0078 195.08 87.7799C194.868 87.552 194.706 87.2819 194.592 86.9694C194.478 86.6569 194.421 86.3151 194.421 85.944V85.7389C194.421 85.3092 194.484 84.9267 194.611 84.5914C194.738 84.2529 194.911 83.9664 195.129 83.7321C195.347 83.4977 195.594 83.3203 195.871 83.1998C196.148 83.0794 196.434 83.0192 196.73 83.0192C197.108 83.0192 197.434 83.0843 197.707 83.2145C197.984 83.3447 198.21 83.527 198.386 83.7614C198.562 83.9925 198.692 84.2659 198.776 84.5817C198.861 84.8942 198.903 85.236 198.903 85.6071V86.0123H194.958V85.275H198V85.2067C197.987 84.9723 197.938 84.7444 197.854 84.5231C197.772 84.3017 197.642 84.1194 197.463 83.9762C197.284 83.833 197.04 83.7614 196.73 83.7614C196.525 83.7614 196.337 83.8053 196.164 83.8932C195.992 83.9778 195.843 84.1048 195.72 84.274C195.596 84.4433 195.5 84.65 195.432 84.8942C195.363 85.1383 195.329 85.4199 195.329 85.7389V85.944C195.329 86.1946 195.363 86.4306 195.432 86.652C195.503 86.8701 195.606 87.0621 195.739 87.2281C195.876 87.3942 196.04 87.5244 196.232 87.6188C196.428 87.7132 196.649 87.7604 196.896 87.7604C197.215 87.7604 197.486 87.6953 197.707 87.5651C197.928 87.4349 198.122 87.2607 198.288 87.0426L198.835 87.4772C198.721 87.6497 198.576 87.8141 198.4 87.9703C198.225 88.1266 198.008 88.2535 197.751 88.3512C197.497 88.4489 197.196 88.4977 196.848 88.4977ZM203.288 87.3746V80.9H204.196V88.4H203.366L203.288 87.3746ZM199.733 85.817V85.7145C199.733 85.3108 199.782 84.9446 199.88 84.6158C199.981 84.2838 200.122 83.999 200.305 83.7614C200.49 83.5237 200.71 83.3414 200.964 83.2145C201.221 83.0843 201.507 83.0192 201.823 83.0192C202.155 83.0192 202.445 83.0778 202.692 83.1949C202.943 83.3089 203.155 83.4765 203.327 83.6979C203.503 83.916 203.641 84.1796 203.742 84.4889C203.843 84.7981 203.913 85.1481 203.952 85.5387V85.9879C203.916 86.3753 203.846 86.7236 203.742 87.0328C203.641 87.3421 203.503 87.6058 203.327 87.8239C203.155 88.042 202.943 88.2096 202.692 88.3268C202.442 88.4407 202.149 88.4977 201.813 88.4977C201.504 88.4977 201.221 88.4309 200.964 88.2975C200.71 88.164 200.49 87.9768 200.305 87.736C200.122 87.4951 199.981 87.2119 199.88 86.8864C199.782 86.5576 199.733 86.2011 199.733 85.817ZM200.642 85.7145V85.817C200.642 86.0807 200.668 86.3281 200.72 86.5592C200.775 86.7903 200.86 86.9938 200.974 87.1696C201.088 87.3453 201.232 87.4837 201.408 87.5846C201.584 87.6823 201.794 87.7311 202.038 87.7311C202.338 87.7311 202.583 87.6676 202.775 87.5406C202.971 87.4137 203.127 87.2461 203.244 87.0377C203.361 86.8294 203.452 86.6031 203.518 86.359V85.1823C203.479 85.0032 203.422 84.8307 203.347 84.6647C203.275 84.4954 203.181 84.3457 203.063 84.2155C202.95 84.082 202.808 83.9762 202.639 83.8981C202.473 83.8199 202.276 83.7809 202.048 83.7809C201.8 83.7809 201.587 83.833 201.408 83.9371C201.232 84.038 201.088 84.178 200.974 84.3571C200.86 84.5328 200.775 84.7379 200.72 84.9723C200.668 85.2034 200.642 85.4508 200.642 85.7145ZM211.159 86.9987C211.159 86.8684 211.13 86.748 211.071 86.6373C211.016 86.5234 210.9 86.4209 210.725 86.3297C210.552 86.2353 210.292 86.1539 209.943 86.0856C209.65 86.0237 209.385 85.9505 209.147 85.8658C208.913 85.7812 208.713 85.6787 208.547 85.5582C208.384 85.4378 208.259 85.2962 208.171 85.1334C208.083 84.9707 208.039 84.7802 208.039 84.5621C208.039 84.3538 208.085 84.1569 208.176 83.9713C208.27 83.7858 208.402 83.6214 208.571 83.4781C208.744 83.3349 208.951 83.2226 209.191 83.1412C209.432 83.0599 209.701 83.0192 209.997 83.0192C210.42 83.0192 210.782 83.094 211.081 83.2438C211.381 83.3935 211.61 83.5937 211.77 83.8444C211.929 84.0918 212.009 84.3668 212.009 84.6696H211.105C211.105 84.5231 211.062 84.3815 210.974 84.2448C210.889 84.1048 210.764 83.9892 210.598 83.8981C210.435 83.8069 210.235 83.7614 209.997 83.7614C209.746 83.7614 209.543 83.8004 209.387 83.8785C209.234 83.9534 209.121 84.0494 209.05 84.1666C208.981 84.2838 208.947 84.4075 208.947 84.5377C208.947 84.6354 208.964 84.7233 208.996 84.8014C209.032 84.8763 209.094 84.9462 209.182 85.0114C209.27 85.0732 209.393 85.1318 209.553 85.1871C209.712 85.2425 209.916 85.2978 210.163 85.3531C210.596 85.4508 210.952 85.568 211.232 85.7047C211.512 85.8414 211.721 86.0091 211.857 86.2076C211.994 86.4062 212.062 86.6471 212.062 86.9303C212.062 87.1614 212.014 87.373 211.916 87.5651C211.822 87.7571 211.683 87.9231 211.501 88.0631C211.322 88.1998 211.107 88.3073 210.856 88.3854C210.609 88.4602 210.331 88.4977 210.021 88.4977C209.556 88.4977 209.162 88.4147 208.84 88.2487C208.518 88.0826 208.273 87.8678 208.107 87.6041C207.941 87.3405 207.858 87.0621 207.858 86.7692H208.767C208.78 87.0166 208.851 87.2135 208.981 87.36C209.112 87.5032 209.271 87.6058 209.46 87.6676C209.649 87.7262 209.836 87.7555 210.021 87.7555C210.269 87.7555 210.476 87.7229 210.642 87.6578C210.811 87.5927 210.939 87.5032 211.027 87.3893C211.115 87.2753 211.159 87.1451 211.159 86.9987ZM215.461 83.1168V83.8102H212.604V83.1168H215.461ZM213.571 81.8326H214.475V87.0914C214.475 87.2705 214.502 87.4056 214.558 87.4967C214.613 87.5878 214.685 87.6481 214.772 87.6774C214.86 87.7067 214.955 87.7213 215.056 87.7213C215.131 87.7213 215.209 87.7148 215.29 87.7018C215.375 87.6855 215.438 87.6725 215.48 87.6627L215.485 88.4C215.414 88.4228 215.319 88.444 215.202 88.4635C215.088 88.4863 214.95 88.4977 214.787 88.4977C214.566 88.4977 214.362 88.4537 214.177 88.3658C213.991 88.278 213.843 88.1315 213.732 87.9264C213.625 87.7181 213.571 87.4381 213.571 87.0865V81.8326ZM216.184 85.817V85.7047C216.184 85.3239 216.239 84.9707 216.35 84.6451C216.46 84.3164 216.62 84.0315 216.828 83.7906C217.036 83.5465 217.289 83.3577 217.585 83.2242C217.881 83.0875 218.213 83.0192 218.581 83.0192C218.952 83.0192 219.286 83.0875 219.582 83.2242C219.882 83.3577 220.135 83.5465 220.344 83.7906C220.555 84.0315 220.716 84.3164 220.827 84.6451C220.938 84.9707 220.993 85.3239 220.993 85.7047V85.817C220.993 86.1979 220.938 86.5511 220.827 86.8766C220.716 87.2021 220.555 87.4869 220.344 87.7311C220.135 87.972 219.883 88.1608 219.587 88.2975C219.294 88.4309 218.962 88.4977 218.591 88.4977C218.22 88.4977 217.886 88.4309 217.59 88.2975C217.294 88.1608 217.04 87.972 216.828 87.7311C216.62 87.4869 216.46 87.2021 216.35 86.8766C216.239 86.5511 216.184 86.1979 216.184 85.817ZM217.087 85.7047V85.817C217.087 86.0807 217.118 86.3297 217.18 86.5641C217.242 86.7952 217.334 87.0003 217.458 87.1793C217.585 87.3584 217.743 87.5 217.932 87.6041C218.12 87.705 218.34 87.7555 218.591 87.7555C218.838 87.7555 219.055 87.705 219.24 87.6041C219.429 87.5 219.585 87.3584 219.709 87.1793C219.833 87.0003 219.925 86.7952 219.987 86.5641C220.052 86.3297 220.085 86.0807 220.085 85.817V85.7047C220.085 85.4443 220.052 85.1985 219.987 84.9674C219.925 84.733 219.831 84.5263 219.704 84.3473C219.58 84.165 219.424 84.0218 219.235 83.9176C219.05 83.8134 218.832 83.7614 218.581 83.7614C218.334 83.7614 218.116 83.8134 217.927 83.9176C217.741 84.0218 217.585 84.165 217.458 84.3473C217.334 84.5263 217.242 84.733 217.18 84.9674C217.118 85.1985 217.087 85.4443 217.087 85.7047ZM223.029 83.9469V88.4H222.126V83.1168H223.005L223.029 83.9469ZM224.68 83.0875L224.675 83.9274C224.6 83.9111 224.528 83.9013 224.46 83.8981C224.395 83.8916 224.32 83.8883 224.235 83.8883C224.027 83.8883 223.843 83.9209 223.684 83.986C223.524 84.0511 223.389 84.1422 223.278 84.2594C223.168 84.3766 223.08 84.5166 223.015 84.6793C222.953 84.8388 222.912 85.0146 222.893 85.2067L222.639 85.3531C222.639 85.0341 222.67 84.7347 222.731 84.4547C222.797 84.1748 222.896 83.9274 223.029 83.7125C223.163 83.4944 223.332 83.3252 223.537 83.2047C223.745 83.081 223.993 83.0192 224.279 83.0192C224.344 83.0192 224.419 83.0273 224.504 83.0436C224.589 83.0566 224.647 83.0712 224.68 83.0875ZM227.619 88.4977C227.251 88.4977 226.918 88.4358 226.618 88.3121C226.322 88.1852 226.066 88.0078 225.852 87.7799C225.64 87.552 225.477 87.2819 225.363 86.9694C225.249 86.6569 225.192 86.3151 225.192 85.944V85.7389C225.192 85.3092 225.256 84.9267 225.383 84.5914C225.51 84.2529 225.682 83.9664 225.9 83.7321C226.118 83.4977 226.366 83.3203 226.643 83.1998C226.919 83.0794 227.206 83.0192 227.502 83.0192C227.88 83.0192 228.205 83.0843 228.479 83.2145C228.755 83.3447 228.981 83.527 229.157 83.7614C229.333 83.9925 229.463 84.2659 229.548 84.5817C229.632 84.8942 229.675 85.236 229.675 85.6071V86.0123H225.729V85.275H228.771V85.2067C228.758 84.9723 228.71 84.7444 228.625 84.5231C228.544 84.3017 228.413 84.1194 228.234 83.9762C228.055 83.833 227.811 83.7614 227.502 83.7614C227.297 83.7614 227.108 83.8053 226.936 83.8932C226.763 83.9778 226.615 84.1048 226.491 84.274C226.368 84.4433 226.271 84.65 226.203 84.8942C226.135 85.1383 226.101 85.4199 226.101 85.7389V85.944C226.101 86.1946 226.135 86.4306 226.203 86.652C226.275 86.8701 226.377 87.0621 226.511 87.2281C226.647 87.3942 226.812 87.5244 227.004 87.6188C227.199 87.7132 227.421 87.7604 227.668 87.7604C227.987 87.7604 228.257 87.6953 228.479 87.5651C228.7 87.4349 228.894 87.2607 229.06 87.0426L229.606 87.4772C229.493 87.6497 229.348 87.8141 229.172 87.9703C228.996 88.1266 228.78 88.2535 228.522 88.3512C228.269 88.4489 227.967 88.4977 227.619 88.4977ZM234.694 87.8531L236.164 83.1168H237.131L235.012 89.2155C234.963 89.3457 234.898 89.4856 234.816 89.6354C234.738 89.7884 234.637 89.9332 234.514 90.0699C234.39 90.2067 234.24 90.3173 234.064 90.402C233.892 90.4899 233.685 90.5338 233.444 90.5338C233.373 90.5338 233.282 90.524 233.171 90.5045C233.06 90.485 232.982 90.4687 232.937 90.4557L232.932 89.7233C232.958 89.7265 232.998 89.7298 233.054 89.733C233.112 89.7395 233.153 89.7428 233.176 89.7428C233.381 89.7428 233.555 89.7151 233.698 89.6598C233.841 89.6077 233.962 89.5182 234.06 89.3912C234.16 89.2675 234.247 89.0966 234.318 88.8785L234.694 87.8531ZM233.615 83.1168L234.987 87.2184L235.222 88.1705L234.572 88.5026L232.629 83.1168H233.615ZM237.639 85.817V85.7047C237.639 85.3239 237.694 84.9707 237.805 84.6451C237.915 84.3164 238.075 84.0315 238.283 83.7906C238.492 83.5465 238.744 83.3577 239.04 83.2242C239.336 83.0875 239.668 83.0192 240.036 83.0192C240.407 83.0192 240.741 83.0875 241.037 83.2242C241.337 83.3577 241.59 83.5465 241.799 83.7906C242.01 84.0315 242.172 84.3164 242.282 84.6451C242.393 84.9707 242.448 85.3239 242.448 85.7047V85.817C242.448 86.1979 242.393 86.5511 242.282 86.8766C242.172 87.2021 242.01 87.4869 241.799 87.7311C241.59 87.972 241.338 88.1608 241.042 88.2975C240.749 88.4309 240.417 88.4977 240.046 88.4977C239.675 88.4977 239.341 88.4309 239.045 88.2975C238.749 88.1608 238.495 87.972 238.283 87.7311C238.075 87.4869 237.915 87.2021 237.805 86.8766C237.694 86.5511 237.639 86.1979 237.639 85.817ZM238.542 85.7047V85.817C238.542 86.0807 238.573 86.3297 238.635 86.5641C238.697 86.7952 238.789 87.0003 238.913 87.1793C239.04 87.3584 239.198 87.5 239.387 87.6041C239.576 87.705 239.795 87.7555 240.046 87.7555C240.293 87.7555 240.51 87.705 240.695 87.6041C240.884 87.5 241.04 87.3584 241.164 87.1793C241.288 87.0003 241.381 86.7952 241.442 86.5641C241.507 86.3297 241.54 86.0807 241.54 85.817V85.7047C241.54 85.4443 241.507 85.1985 241.442 84.9674C241.381 84.733 241.286 84.5263 241.159 84.3473C241.035 84.165 240.879 84.0218 240.69 83.9176C240.505 83.8134 240.287 83.7614 240.036 83.7614C239.789 83.7614 239.571 83.8134 239.382 83.9176C239.196 84.0218 239.04 84.165 238.913 84.3473C238.789 84.5263 238.697 84.733 238.635 84.9674C238.573 85.1985 238.542 85.4443 238.542 85.7047ZM246.813 87.1793V83.1168H247.722V88.4H246.857L246.813 87.1793ZM246.984 86.066L247.36 86.0563C247.36 86.4078 247.323 86.7334 247.248 87.0328C247.176 87.3291 247.059 87.5862 246.896 87.8043C246.734 88.0224 246.521 88.1933 246.257 88.317C245.993 88.4375 245.673 88.4977 245.295 88.4977C245.038 88.4977 244.802 88.4602 244.587 88.3854C244.375 88.3105 244.193 88.1949 244.04 88.0387C243.887 87.8824 243.768 87.679 243.684 87.4283C243.602 87.1777 243.562 86.8766 243.562 86.525V83.1168H244.465V86.5348C244.465 86.7724 244.491 86.9694 244.543 87.1256C244.598 87.2786 244.672 87.4007 244.763 87.4918C244.857 87.5797 244.961 87.6416 245.075 87.6774C245.192 87.7132 245.313 87.7311 245.437 87.7311C245.821 87.7311 246.125 87.6578 246.35 87.5114C246.574 87.3616 246.735 87.1614 246.833 86.9108C246.934 86.6569 246.984 86.3753 246.984 86.066ZM251.574 80.9H252.482V87.3746L252.404 88.4H251.574V80.9ZM256.052 85.7145V85.817C256.052 86.2011 256.006 86.5576 255.915 86.8864C255.824 87.2119 255.69 87.4951 255.515 87.736C255.339 87.9768 255.124 88.164 254.87 88.2975C254.616 88.4309 254.325 88.4977 253.996 88.4977C253.661 88.4977 253.366 88.4407 253.112 88.3268C252.862 88.2096 252.65 88.042 252.478 87.8239C252.305 87.6058 252.167 87.3421 252.062 87.0328C251.962 86.7236 251.892 86.3753 251.853 85.9879V85.5387C251.892 85.1481 251.962 84.7981 252.062 84.4889C252.167 84.1796 252.305 83.916 252.478 83.6979C252.65 83.4765 252.862 83.3089 253.112 83.1949C253.363 83.0778 253.654 83.0192 253.986 83.0192C254.318 83.0192 254.613 83.0843 254.87 83.2145C255.127 83.3414 255.342 83.5237 255.515 83.7614C255.69 83.999 255.824 84.2838 255.915 84.6158C256.006 84.9446 256.052 85.3108 256.052 85.7145ZM255.144 85.817V85.7145C255.144 85.4508 255.119 85.2034 255.07 84.9723C255.021 84.7379 254.943 84.5328 254.836 84.3571C254.729 84.178 254.587 84.038 254.411 83.9371C254.235 83.833 254.019 83.7809 253.762 83.7809C253.534 83.7809 253.335 83.8199 253.166 83.8981C253 83.9762 252.858 84.082 252.741 84.2155C252.624 84.3457 252.528 84.4954 252.453 84.6647C252.382 84.8307 252.328 85.0032 252.292 85.1823V86.359C252.344 86.5869 252.429 86.8066 252.546 87.0182C252.666 87.2265 252.826 87.3974 253.024 87.5309C253.226 87.6643 253.475 87.7311 253.771 87.7311C254.016 87.7311 254.224 87.6823 254.396 87.5846C254.572 87.4837 254.714 87.3453 254.821 87.1696C254.932 86.9938 255.013 86.7903 255.065 86.5592C255.118 86.3281 255.144 86.0807 255.144 85.817ZM256.955 85.817V85.7047C256.955 85.3239 257.01 84.9707 257.121 84.6451C257.232 84.3164 257.391 84.0315 257.6 83.7906C257.808 83.5465 258.06 83.3577 258.356 83.2242C258.653 83.0875 258.985 83.0192 259.353 83.0192C259.724 83.0192 260.057 83.0875 260.354 83.2242C260.653 83.3577 260.907 83.5465 261.115 83.7906C261.327 84.0315 261.488 84.3164 261.599 84.6451C261.709 84.9707 261.765 85.3239 261.765 85.7047V85.817C261.765 86.1979 261.709 86.5511 261.599 86.8766C261.488 87.2021 261.327 87.4869 261.115 87.7311C260.907 87.972 260.655 88.1608 260.358 88.2975C260.065 88.4309 259.733 88.4977 259.362 88.4977C258.991 88.4977 258.658 88.4309 258.361 88.2975C258.065 88.1608 257.811 87.972 257.6 87.7311C257.391 87.4869 257.232 87.2021 257.121 86.8766C257.01 86.5511 256.955 86.1979 256.955 85.817ZM257.858 85.7047V85.817C257.858 86.0807 257.889 86.3297 257.951 86.5641C258.013 86.7952 258.106 87.0003 258.229 87.1793C258.356 87.3584 258.514 87.5 258.703 87.6041C258.892 87.705 259.112 87.7555 259.362 87.7555C259.61 87.7555 259.826 87.705 260.012 87.6041C260.201 87.5 260.357 87.3584 260.48 87.1793C260.604 87.0003 260.697 86.7952 260.759 86.5641C260.824 86.3297 260.856 86.0807 260.856 85.817V85.7047C260.856 85.4443 260.824 85.1985 260.759 84.9674C260.697 84.733 260.603 84.5263 260.476 84.3473C260.352 84.165 260.196 84.0218 260.007 83.9176C259.821 83.8134 259.603 83.7614 259.353 83.7614C259.105 83.7614 258.887 83.8134 258.698 83.9176C258.513 84.0218 258.356 84.165 258.229 84.3473C258.106 84.5263 258.013 84.733 257.951 84.9674C257.889 85.1985 257.858 85.4443 257.858 85.7047ZM265.109 83.1168V83.8102H262.253V83.1168H265.109ZM263.22 81.8326H264.123V87.0914C264.123 87.2705 264.151 87.4056 264.206 87.4967C264.261 87.5878 264.333 87.6481 264.421 87.6774C264.509 87.7067 264.603 87.7213 264.704 87.7213C264.779 87.7213 264.857 87.7148 264.938 87.7018C265.023 87.6855 265.087 87.6725 265.129 87.6627L265.134 88.4C265.062 88.4228 264.968 88.444 264.851 88.4635C264.737 88.4863 264.598 88.4977 264.436 88.4977C264.214 88.4977 264.011 88.4537 263.825 88.3658C263.64 88.278 263.492 88.1315 263.381 87.9264C263.273 87.7181 263.22 87.4381 263.22 87.0865V81.8326ZM267.072 80.9V88.4H266.169V80.9H267.072ZM266.857 85.5582L266.481 85.5436C266.485 85.1823 266.538 84.8486 266.643 84.5426C266.747 84.2334 266.893 83.9648 267.082 83.7369C267.271 83.5091 267.495 83.3333 267.756 83.2096C268.02 83.0826 268.311 83.0192 268.63 83.0192C268.89 83.0192 269.125 83.055 269.333 83.1266C269.541 83.1949 269.719 83.3056 269.865 83.4586C270.015 83.6116 270.129 83.8102 270.207 84.0543C270.285 84.2952 270.324 84.5898 270.324 84.9381V88.4H269.416V84.9283C269.416 84.6517 269.375 84.4303 269.294 84.2643C269.213 84.095 269.094 83.9729 268.938 83.8981C268.781 83.8199 268.589 83.7809 268.361 83.7809C268.137 83.7809 267.932 83.8281 267.746 83.9225C267.564 84.0169 267.406 84.1471 267.272 84.3131C267.142 84.4791 267.04 84.6696 266.965 84.8844C266.893 85.096 266.857 85.3206 266.857 85.5582ZM277.58 83.1168H278.4V88.2877C278.4 88.7532 278.306 89.1503 278.117 89.4791C277.928 89.8079 277.665 90.0569 277.326 90.2262C276.991 90.3987 276.604 90.485 276.164 90.485C275.982 90.485 275.767 90.4557 275.52 90.3971C275.275 90.3418 275.035 90.2457 274.797 90.109C274.562 89.9755 274.366 89.7949 274.206 89.567L274.68 89.0299C274.901 89.2968 275.132 89.4824 275.373 89.5865C275.617 89.6907 275.858 89.7428 276.096 89.7428C276.382 89.7428 276.63 89.6891 276.838 89.5817C277.046 89.4742 277.207 89.3147 277.321 89.1031C277.438 88.8948 277.497 88.6377 277.497 88.3317V84.2789L277.58 83.1168ZM273.942 85.817V85.7145C273.942 85.3108 273.99 84.9446 274.084 84.6158C274.182 84.2838 274.32 83.999 274.499 83.7614C274.681 83.5237 274.901 83.3414 275.158 83.2145C275.415 83.0843 275.705 83.0192 276.027 83.0192C276.359 83.0192 276.649 83.0778 276.896 83.1949C277.147 83.3089 277.359 83.4765 277.531 83.6979C277.707 83.916 277.845 84.1796 277.946 84.4889C278.047 84.7981 278.117 85.1481 278.156 85.5387V85.9879C278.12 86.3753 278.05 86.7236 277.946 87.0328C277.845 87.3421 277.707 87.6058 277.531 87.8239C277.359 88.042 277.147 88.2096 276.896 88.3268C276.646 88.4407 276.353 88.4977 276.018 88.4977C275.702 88.4977 275.415 88.4309 275.158 88.2975C274.904 88.164 274.686 87.9768 274.504 87.736C274.322 87.4951 274.182 87.2119 274.084 86.8864C273.99 86.5576 273.942 86.2011 273.942 85.817ZM274.846 85.7145V85.817C274.846 86.0807 274.872 86.3281 274.924 86.5592C274.979 86.7903 275.062 86.9938 275.173 87.1696C275.287 87.3453 275.432 87.4837 275.607 87.5846C275.783 87.6823 275.993 87.7311 276.237 87.7311C276.537 87.7311 276.784 87.6676 276.979 87.5406C277.175 87.4137 277.329 87.2461 277.443 87.0377C277.561 86.8294 277.652 86.6031 277.717 86.359V85.1823C277.681 85.0032 277.626 84.8307 277.551 84.6647C277.479 84.4954 277.385 84.3457 277.268 84.2155C277.154 84.082 277.012 83.9762 276.843 83.8981C276.674 83.8199 276.475 83.7809 276.247 83.7809C276 83.7809 275.786 83.833 275.607 83.9371C275.432 84.038 275.287 84.178 275.173 84.3571C275.062 84.5328 274.979 84.7379 274.924 84.9723C274.872 85.2034 274.846 85.4508 274.846 85.7145ZM281.965 88.4977C281.597 88.4977 281.263 88.4358 280.964 88.3121C280.668 88.1852 280.412 88.0078 280.197 87.7799C279.986 87.552 279.823 87.2819 279.709 86.9694C279.595 86.6569 279.538 86.3151 279.538 85.944V85.7389C279.538 85.3092 279.602 84.9267 279.729 84.5914C279.855 84.2529 280.028 83.9664 280.246 83.7321C280.464 83.4977 280.712 83.3203 280.988 83.1998C281.265 83.0794 281.551 83.0192 281.848 83.0192C282.225 83.0192 282.551 83.0843 282.824 83.2145C283.101 83.3447 283.327 83.527 283.503 83.7614C283.679 83.9925 283.809 84.2659 283.894 84.5817C283.978 84.8942 284.021 85.236 284.021 85.6071V86.0123H280.075V85.275H283.117V85.2067C283.104 84.9723 283.055 84.7444 282.971 84.5231C282.889 84.3017 282.759 84.1194 282.58 83.9762C282.401 83.833 282.157 83.7614 281.848 83.7614C281.643 83.7614 281.454 83.8053 281.281 83.8932C281.109 83.9778 280.961 84.1048 280.837 84.274C280.713 84.4433 280.617 84.65 280.549 84.8942C280.48 85.1383 280.446 85.4199 280.446 85.7389V85.944C280.446 86.1946 280.48 86.4306 280.549 86.652C280.62 86.8701 280.723 87.0621 280.856 87.2281C280.993 87.3942 281.158 87.5244 281.35 87.6188C281.545 87.7132 281.766 87.7604 282.014 87.7604C282.333 87.7604 282.603 87.6953 282.824 87.5651C283.046 87.4349 283.239 87.2607 283.405 87.0426L283.952 87.4772C283.838 87.6497 283.693 87.8141 283.518 87.9703C283.342 88.1266 283.125 88.2535 282.868 88.3512C282.614 88.4489 282.313 88.4977 281.965 88.4977ZM287.287 83.1168V83.8102H284.431V83.1168H287.287ZM285.397 81.8326H286.301V87.0914C286.301 87.2705 286.328 87.4056 286.384 87.4967C286.439 87.5878 286.511 87.6481 286.599 87.6774C286.687 87.7067 286.781 87.7213 286.882 87.7213C286.957 87.7213 287.035 87.7148 287.116 87.7018C287.201 87.6855 287.264 87.6725 287.307 87.6627L287.312 88.4C287.24 88.4228 287.146 88.444 287.028 88.4635C286.914 88.4863 286.776 88.4977 286.613 88.4977C286.392 88.4977 286.188 88.4537 286.003 88.3658C285.817 88.278 285.669 88.1315 285.559 87.9264C285.451 87.7181 285.397 87.4381 285.397 87.0865V81.8326ZM34.7334 97.0162L34.0107 96.8307L34.3672 93.2906H38.0146V94.1256H35.1338L34.9189 96.0592C35.0492 95.9843 35.2135 95.9143 35.4121 95.8492C35.6139 95.7841 35.8451 95.7516 36.1055 95.7516C36.4342 95.7516 36.7288 95.8086 36.9893 95.9225C37.2497 96.0332 37.471 96.1927 37.6533 96.401C37.8389 96.6093 37.9805 96.86 38.0781 97.153C38.1758 97.4459 38.2246 97.7731 38.2246 98.1344C38.2246 98.4762 38.1774 98.7903 38.083 99.0768C37.9919 99.3632 37.8535 99.6139 37.668 99.8287C37.4824 100.04 37.248 100.205 36.9648 100.322C36.6849 100.439 36.3545 100.498 35.9736 100.498C35.6872 100.498 35.4154 100.459 35.1582 100.38C34.9043 100.299 34.6764 100.177 34.4746 100.014C34.276 99.8483 34.1133 99.6432 33.9863 99.399C33.8626 99.1517 33.7845 98.8619 33.752 98.5299H34.6113C34.6504 98.7968 34.7285 99.0214 34.8457 99.2037C34.9629 99.386 35.1159 99.5244 35.3047 99.6188C35.4967 99.7099 35.7197 99.7555 35.9736 99.7555C36.1885 99.7555 36.3789 99.7181 36.5449 99.6432C36.7109 99.5683 36.8509 99.4609 36.9648 99.3209C37.0788 99.1809 37.165 99.0117 37.2236 98.8131C37.2855 98.6145 37.3164 98.3916 37.3164 98.1442C37.3164 97.9196 37.2855 97.7112 37.2236 97.5192C37.1618 97.3271 37.069 97.1595 36.9453 97.0162C36.8249 96.873 36.6768 96.7623 36.501 96.6842C36.3252 96.6028 36.1234 96.5621 35.8955 96.5621C35.5928 96.5621 35.3633 96.6028 35.207 96.6842C35.054 96.7656 34.8962 96.8763 34.7334 97.0162ZM43.6787 96.2789V97.3629C43.6787 97.9456 43.6266 98.4371 43.5225 98.8375C43.4183 99.2379 43.2686 99.5602 43.0732 99.8043C42.8779 100.048 42.6419 100.226 42.3652 100.337C42.0918 100.444 41.7826 100.498 41.4375 100.498C41.1641 100.498 40.9118 100.464 40.6807 100.395C40.4495 100.327 40.2412 100.218 40.0557 100.068C39.8734 99.915 39.7171 99.7164 39.5869 99.4723C39.4567 99.2281 39.3574 98.9319 39.2891 98.5836C39.2207 98.2353 39.1865 97.8284 39.1865 97.3629V96.2789C39.1865 95.6962 39.2386 95.208 39.3428 94.8141C39.4502 94.4202 39.6016 94.1045 39.7969 93.8668C39.9922 93.6259 40.2266 93.4534 40.5 93.3492C40.7767 93.2451 41.0859 93.193 41.4277 93.193C41.7044 93.193 41.9583 93.2272 42.1895 93.2955C42.4238 93.3606 42.6322 93.4664 42.8145 93.6129C42.9967 93.7561 43.1514 93.9482 43.2783 94.1891C43.4085 94.4267 43.5078 94.7181 43.5762 95.0631C43.6445 95.4082 43.6787 95.8134 43.6787 96.2789ZM42.7705 97.5094V96.1276C42.7705 95.8086 42.751 95.5286 42.7119 95.2877C42.6761 95.0436 42.6224 94.8352 42.5508 94.6627C42.4792 94.4902 42.388 94.3502 42.2773 94.2428C42.1699 94.1354 42.0446 94.0573 41.9014 94.0084C41.7614 93.9563 41.6035 93.9303 41.4277 93.9303C41.2129 93.9303 41.0225 93.971 40.8564 94.0524C40.6904 94.1305 40.5505 94.2558 40.4365 94.4283C40.3258 94.6009 40.2412 94.8271 40.1826 95.1071C40.124 95.387 40.0947 95.7272 40.0947 96.1276V97.5094C40.0947 97.8284 40.1126 98.11 40.1484 98.3541C40.1875 98.5983 40.2445 98.8099 40.3193 98.9889C40.3942 99.1647 40.4854 99.3095 40.5928 99.4235C40.7002 99.5374 40.8239 99.622 40.9639 99.6774C41.1071 99.7295 41.265 99.7555 41.4375 99.7555C41.6589 99.7555 41.8525 99.7132 42.0186 99.6285C42.1846 99.5439 42.3229 99.4121 42.4336 99.233C42.5475 99.0507 42.6322 98.818 42.6875 98.5348C42.7428 98.2483 42.7705 97.9065 42.7705 97.5094ZM49.3037 96.2789V97.3629C49.3037 97.9456 49.2516 98.4371 49.1475 98.8375C49.0433 99.2379 48.8936 99.5602 48.6982 99.8043C48.5029 100.048 48.2669 100.226 47.9902 100.337C47.7168 100.444 47.4076 100.498 47.0625 100.498C46.7891 100.498 46.5368 100.464 46.3057 100.395C46.0745 100.327 45.8662 100.218 45.6807 100.068C45.4984 99.915 45.3421 99.7164 45.2119 99.4723C45.0817 99.2281 44.9824 98.9319 44.9141 98.5836C44.8457 98.2353 44.8115 97.8284 44.8115 97.3629V96.2789C44.8115 95.6962 44.8636 95.208 44.9678 94.8141C45.0752 94.4202 45.2266 94.1045 45.4219 93.8668C45.6172 93.6259 45.8516 93.4534 46.125 93.3492C46.4017 93.2451 46.7109 93.193 47.0527 93.193C47.3294 93.193 47.5833 93.2272 47.8145 93.2955C48.0488 93.3606 48.2572 93.4664 48.4395 93.6129C48.6217 93.7561 48.7764 93.9482 48.9033 94.1891C49.0335 94.4267 49.1328 94.7181 49.2012 95.0631C49.2695 95.4082 49.3037 95.8134 49.3037 96.2789ZM48.3955 97.5094V96.1276C48.3955 95.8086 48.376 95.5286 48.3369 95.2877C48.3011 95.0436 48.2474 94.8352 48.1758 94.6627C48.1042 94.4902 48.013 94.3502 47.9023 94.2428C47.7949 94.1354 47.6696 94.0573 47.5264 94.0084C47.3864 93.9563 47.2285 93.9303 47.0527 93.9303C46.8379 93.9303 46.6475 93.971 46.4814 94.0524C46.3154 94.1305 46.1755 94.2558 46.0615 94.4283C45.9508 94.6009 45.8662 94.8271 45.8076 95.1071C45.749 95.387 45.7197 95.7272 45.7197 96.1276V97.5094C45.7197 97.8284 45.7376 98.11 45.7734 98.3541C45.8125 98.5983 45.8695 98.8099 45.9443 98.9889C46.0192 99.1647 46.1104 99.3095 46.2178 99.4235C46.3252 99.5374 46.4489 99.622 46.5889 99.6774C46.7321 99.7295 46.89 99.7555 47.0625 99.7555C47.2839 99.7555 47.4775 99.7132 47.6436 99.6285C47.8096 99.5439 47.9479 99.4121 48.0586 99.233C48.1725 99.0507 48.2572 98.818 48.3125 98.5348C48.3678 98.2483 48.3955 97.9065 48.3955 97.5094ZM55.0508 98.2516L56.4619 93.2906H57.1455L56.75 95.2194L55.2314 100.4H54.5527L55.0508 98.2516ZM53.5908 93.2906L54.7139 98.1539L55.0508 100.4H54.377L52.6533 93.2906H53.5908ZM58.9717 98.149L60.0703 93.2906H61.0127L59.2939 100.4H58.6201L58.9717 98.149ZM57.248 93.2906L58.6201 98.2516L59.1182 100.4H58.4395L56.9746 95.2194L56.5742 93.2906H57.248ZM63.9668 100.498C63.599 100.498 63.2653 100.436 62.9658 100.312C62.6696 100.185 62.4141 100.008 62.1992 99.7799C61.9876 99.552 61.8249 99.2819 61.7109 98.9694C61.597 98.6569 61.54 98.3151 61.54 97.944V97.7389C61.54 97.3092 61.6035 96.9267 61.7305 96.5914C61.8574 96.2529 62.0299 95.9664 62.248 95.7321C62.4661 95.4977 62.7135 95.3203 62.9902 95.1998C63.2669 95.0794 63.5534 95.0192 63.8496 95.0192C64.2272 95.0192 64.5527 95.0843 64.8262 95.2145C65.1029 95.3447 65.3291 95.527 65.5049 95.7614C65.6807 95.9925 65.8109 96.2659 65.8955 96.5817C65.9801 96.8942 66.0225 97.236 66.0225 97.6071V98.0123H62.0771V97.275H65.1191V97.2067C65.1061 96.9723 65.0573 96.7444 64.9727 96.5231C64.8913 96.3017 64.7611 96.1194 64.582 95.9762C64.403 95.833 64.1589 95.7614 63.8496 95.7614C63.6445 95.7614 63.4557 95.8053 63.2832 95.8932C63.1107 95.9778 62.9626 96.1048 62.8389 96.274C62.7152 96.4433 62.6191 96.65 62.5508 96.8942C62.4824 97.1383 62.4482 97.4199 62.4482 97.7389V97.944C62.4482 98.1946 62.4824 98.4306 62.5508 98.652C62.6224 98.8701 62.7249 99.0621 62.8584 99.2281C62.9951 99.3942 63.1595 99.5244 63.3516 99.6188C63.5469 99.7132 63.7682 99.7604 64.0156 99.7604C64.3346 99.7604 64.6048 99.6953 64.8262 99.5651C65.0475 99.4349 65.2412 99.2607 65.4072 99.0426L65.9541 99.4772C65.8402 99.6497 65.6953 99.8141 65.5195 99.9703C65.3438 100.127 65.1273 100.254 64.8701 100.351C64.6162 100.449 64.3151 100.498 63.9668 100.498ZM70.1924 99.4967V96.777C70.1924 96.5686 70.1501 96.388 70.0654 96.235C69.984 96.0787 69.8604 95.9583 69.6943 95.8737C69.5283 95.789 69.3232 95.7467 69.0791 95.7467C68.8512 95.7467 68.651 95.7858 68.4785 95.8639C68.3092 95.942 68.1758 96.0446 68.0781 96.1715C67.9837 96.2985 67.9365 96.4352 67.9365 96.5817H67.0332C67.0332 96.3929 67.082 96.2057 67.1797 96.0201C67.2773 95.8346 67.4173 95.667 67.5996 95.5172C67.7852 95.3642 68.0065 95.2438 68.2637 95.1559C68.5241 95.0647 68.8138 95.0192 69.1328 95.0192C69.5169 95.0192 69.8555 95.0843 70.1484 95.2145C70.4447 95.3447 70.6758 95.5416 70.8418 95.8053C71.0111 96.0657 71.0957 96.3929 71.0957 96.7867V99.2477C71.0957 99.4235 71.1104 99.6106 71.1396 99.8092C71.1722 100.008 71.2194 100.179 71.2812 100.322V100.4H70.3389C70.2933 100.296 70.2575 100.158 70.2314 99.985C70.2054 99.8092 70.1924 99.6464 70.1924 99.4967ZM70.3486 97.1969L70.3584 97.8317H69.4453C69.1882 97.8317 68.9587 97.8528 68.7568 97.8951C68.555 97.9342 68.3857 97.9944 68.249 98.0758C68.1123 98.1572 68.0081 98.2597 67.9365 98.3834C67.8649 98.5039 67.8291 98.6455 67.8291 98.8082C67.8291 98.9742 67.8665 99.1256 67.9414 99.2623C68.0163 99.399 68.1286 99.5081 68.2783 99.5895C68.4313 99.6676 68.6185 99.7067 68.8398 99.7067C69.1165 99.7067 69.3607 99.6481 69.5723 99.5309C69.7839 99.4137 69.9515 99.2705 70.0752 99.1012C70.2021 98.9319 70.2705 98.7675 70.2803 98.608L70.666 99.0426C70.6432 99.1793 70.5814 99.3307 70.4805 99.4967C70.3796 99.6627 70.2445 99.8222 70.0752 99.9752C69.9092 100.125 69.7106 100.25 69.4795 100.351C69.2516 100.449 68.9945 100.498 68.708 100.498C68.3499 100.498 68.0358 100.428 67.7656 100.288C67.4987 100.148 67.2904 99.9606 67.1406 99.7262C66.9941 99.4886 66.9209 99.2233 66.9209 98.9303C66.9209 98.6471 66.9762 98.3981 67.0869 98.1832C67.1976 97.9651 67.3571 97.7845 67.5654 97.6412C67.7738 97.4948 68.0244 97.3841 68.3174 97.3092C68.6104 97.2343 68.9375 97.1969 69.2988 97.1969H70.3486ZM73.4199 95.9469V100.4H72.5166V95.1168H73.3955L73.4199 95.9469ZM75.0703 95.0875L75.0654 95.9274C74.9906 95.9111 74.9189 95.9013 74.8506 95.8981C74.7855 95.8916 74.7106 95.8883 74.626 95.8883C74.4176 95.8883 74.2337 95.9209 74.0742 95.986C73.9147 96.0511 73.7796 96.1422 73.6689 96.2594C73.5583 96.3766 73.4704 96.5166 73.4053 96.6793C73.3434 96.8388 73.3027 97.0146 73.2832 97.2067L73.0293 97.3531C73.0293 97.0341 73.0602 96.7347 73.1221 96.4547C73.1872 96.1748 73.2865 95.9274 73.4199 95.7125C73.5534 95.4944 73.7227 95.3252 73.9277 95.2047C74.1361 95.081 74.3835 95.0192 74.6699 95.0192C74.735 95.0192 74.8099 95.0273 74.8945 95.0436C74.9792 95.0566 75.0378 95.0712 75.0703 95.0875ZM76.8867 95.1168V100.4H75.9785V95.1168H76.8867ZM75.9102 93.7155C75.9102 93.569 75.9541 93.4453 76.042 93.3444C76.1331 93.2434 76.2666 93.193 76.4424 93.193C76.6149 93.193 76.7467 93.2434 76.8379 93.3444C76.9323 93.4453 76.9795 93.569 76.9795 93.7155C76.9795 93.8554 76.9323 93.9759 76.8379 94.0768C76.7467 94.1744 76.6149 94.2233 76.4424 94.2233C76.2666 94.2233 76.1331 94.1744 76.042 94.0768C75.9541 93.9759 75.9102 93.8554 75.9102 93.7155ZM79.6846 100.4H78.7812V94.5602C78.7812 94.1793 78.8496 93.8587 78.9863 93.5983C79.1263 93.3346 79.3265 93.136 79.5869 93.0026C79.8473 92.8658 80.1566 92.7975 80.5146 92.7975C80.6188 92.7975 80.723 92.804 80.8271 92.817C80.9346 92.83 81.0387 92.8496 81.1396 92.8756L81.0908 93.6129C81.0225 93.5966 80.9443 93.5852 80.8564 93.5787C80.7718 93.5722 80.6872 93.569 80.6025 93.569C80.4105 93.569 80.2445 93.608 80.1045 93.6862C79.9678 93.761 79.8636 93.8717 79.792 94.0182C79.7204 94.1647 79.6846 94.3453 79.6846 94.5602V100.4ZM80.8076 95.1168V95.8102H77.9463V95.1168H80.8076ZM83.2979 99.8531L84.7676 95.1168H85.7344L83.6152 101.215C83.5664 101.346 83.5013 101.486 83.4199 101.635C83.3418 101.788 83.2409 101.933 83.1172 102.07C82.9935 102.207 82.8438 102.317 82.668 102.402C82.4954 102.49 82.2887 102.534 82.0479 102.534C81.9762 102.534 81.8851 102.524 81.7744 102.505C81.6637 102.485 81.5856 102.469 81.54 102.456L81.5352 101.723C81.5612 101.727 81.6019 101.73 81.6572 101.733C81.7158 101.74 81.7565 101.743 81.7793 101.743C81.9844 101.743 82.1585 101.715 82.3018 101.66C82.445 101.608 82.5654 101.518 82.6631 101.391C82.764 101.268 82.8503 101.097 82.9219 100.879L83.2979 99.8531ZM82.2188 95.1168L83.5908 99.2184L83.8252 100.171L83.1758 100.503L81.2324 95.1168H82.2188ZM91.1445 99.7555C91.3594 99.7555 91.5579 99.7115 91.7402 99.6237C91.9225 99.5358 92.0723 99.4153 92.1895 99.2623C92.3066 99.1061 92.3734 98.9287 92.3896 98.7301H93.249C93.2327 99.0426 93.127 99.3339 92.9316 99.6041C92.7396 99.8711 92.4873 100.088 92.1748 100.254C91.8623 100.416 91.5189 100.498 91.1445 100.498C90.7474 100.498 90.4007 100.428 90.1045 100.288C89.8115 100.148 89.5674 99.9557 89.3721 99.7115C89.18 99.4674 89.0352 99.1875 88.9375 98.8717C88.8431 98.5527 88.7959 98.2158 88.7959 97.861V97.6559C88.7959 97.3011 88.8431 96.9658 88.9375 96.65C89.0352 96.331 89.18 96.0494 89.3721 95.8053C89.5674 95.5612 89.8115 95.3691 90.1045 95.2291C90.4007 95.0892 90.7474 95.0192 91.1445 95.0192C91.5579 95.0192 91.9193 95.1038 92.2285 95.2731C92.5378 95.4391 92.7803 95.667 92.9561 95.9567C93.1351 96.2431 93.2327 96.5686 93.249 96.9332H92.3896C92.3734 96.7151 92.3115 96.5182 92.2041 96.3424C92.0999 96.1666 91.9567 96.0267 91.7744 95.9225C91.5954 95.8151 91.3854 95.7614 91.1445 95.7614C90.8678 95.7614 90.6351 95.8167 90.4463 95.9274C90.2607 96.0348 90.1126 96.1813 90.002 96.3668C89.8945 96.5491 89.8164 96.7526 89.7676 96.9772C89.722 97.1985 89.6992 97.4248 89.6992 97.6559V97.861C89.6992 98.0921 89.722 98.3199 89.7676 98.5446C89.8132 98.7692 89.8896 98.9726 89.9971 99.1549C90.1077 99.3372 90.2559 99.4837 90.4414 99.5944C90.6302 99.7018 90.8646 99.7555 91.1445 99.7555ZM95.168 95.9469V100.4H94.2646V95.1168H95.1436L95.168 95.9469ZM96.8184 95.0875L96.8135 95.9274C96.7386 95.9111 96.667 95.9013 96.5986 95.8981C96.5335 95.8916 96.4587 95.8883 96.374 95.8883C96.1657 95.8883 95.9818 95.9209 95.8223 95.986C95.6628 96.0511 95.5277 96.1422 95.417 96.2594C95.3063 96.3766 95.2184 96.5166 95.1533 96.6793C95.0915 96.8388 95.0508 97.0146 95.0312 97.2067L94.7773 97.3531C94.7773 97.0341 94.8083 96.7347 94.8701 96.4547C94.9352 96.1748 95.0345 95.9274 95.168 95.7125C95.3014 95.4944 95.4707 95.3252 95.6758 95.2047C95.8841 95.081 96.1315 95.0192 96.418 95.0192C96.4831 95.0192 96.5579 95.0273 96.6426 95.0436C96.7272 95.0566 96.7858 95.0712 96.8184 95.0875ZM99.7578 100.498C99.39 100.498 99.0563 100.436 98.7568 100.312C98.4606 100.185 98.2051 100.008 97.9902 99.7799C97.7786 99.552 97.6159 99.2819 97.502 98.9694C97.388 98.6569 97.3311 98.3151 97.3311 97.944V97.7389C97.3311 97.3092 97.3945 96.9267 97.5215 96.5914C97.6484 96.2529 97.821 95.9664 98.0391 95.7321C98.2572 95.4977 98.5046 95.3203 98.7812 95.1998C99.0579 95.0794 99.3444 95.0192 99.6406 95.0192C100.018 95.0192 100.344 95.0843 100.617 95.2145C100.894 95.3447 101.12 95.527 101.296 95.7614C101.472 95.9925 101.602 96.2659 101.687 96.5817C101.771 96.8942 101.813 97.236 101.813 97.6071V98.0123H97.8682V97.275H100.91V97.2067C100.897 96.9723 100.848 96.7444 100.764 96.5231C100.682 96.3017 100.552 96.1194 100.373 95.9762C100.194 95.833 99.9499 95.7614 99.6406 95.7614C99.4355 95.7614 99.2467 95.8053 99.0742 95.8932C98.9017 95.9778 98.7536 96.1048 98.6299 96.274C98.5062 96.4433 98.4102 96.65 98.3418 96.8942C98.2734 97.1383 98.2393 97.4199 98.2393 97.7389V97.944C98.2393 98.1946 98.2734 98.4306 98.3418 98.652C98.4134 98.8701 98.516 99.0621 98.6494 99.2281C98.7861 99.3942 98.9505 99.5244 99.1426 99.6188C99.3379 99.7132 99.5592 99.7604 99.8066 99.7604C100.126 99.7604 100.396 99.6953 100.617 99.5651C100.839 99.4349 101.032 99.2607 101.198 99.0426L101.745 99.4772C101.631 99.6497 101.486 99.8141 101.311 99.9703C101.135 100.127 100.918 100.254 100.661 100.351C100.407 100.449 100.106 100.498 99.7578 100.498ZM106.198 99.3746V92.9H107.106V100.4H106.276L106.198 99.3746ZM102.644 97.817V97.7145C102.644 97.3108 102.692 96.9446 102.79 96.6158C102.891 96.2838 103.033 95.999 103.215 95.7614C103.4 95.5237 103.62 95.3414 103.874 95.2145C104.131 95.0843 104.418 95.0192 104.733 95.0192C105.065 95.0192 105.355 95.0778 105.603 95.1949C105.853 95.3089 106.065 95.4765 106.237 95.6979C106.413 95.916 106.551 96.1796 106.652 96.4889C106.753 96.7981 106.823 97.1481 106.862 97.5387V97.9879C106.826 98.3753 106.757 98.7236 106.652 99.0328C106.551 99.3421 106.413 99.6058 106.237 99.8239C106.065 100.042 105.853 100.21 105.603 100.327C105.352 100.441 105.059 100.498 104.724 100.498C104.414 100.498 104.131 100.431 103.874 100.297C103.62 100.164 103.4 99.9768 103.215 99.736C103.033 99.4951 102.891 99.2119 102.79 98.8864C102.692 98.5576 102.644 98.2011 102.644 97.817ZM103.552 97.7145V97.817C103.552 98.0807 103.578 98.3281 103.63 98.5592C103.685 98.7903 103.77 98.9938 103.884 99.1696C103.998 99.3453 104.143 99.4837 104.318 99.5846C104.494 99.6823 104.704 99.7311 104.948 99.7311C105.248 99.7311 105.493 99.6676 105.686 99.5406C105.881 99.4137 106.037 99.2461 106.154 99.0377C106.271 98.8294 106.363 98.6031 106.428 98.359V97.1823C106.389 97.0032 106.332 96.8307 106.257 96.6647C106.185 96.4954 106.091 96.3457 105.974 96.2155C105.86 96.082 105.718 95.9762 105.549 95.8981C105.383 95.8199 105.186 95.7809 104.958 95.7809C104.711 95.7809 104.497 95.833 104.318 95.9371C104.143 96.038 103.998 96.178 103.884 96.3571C103.77 96.5328 103.685 96.7379 103.63 96.9723C103.578 97.2034 103.552 97.4508 103.552 97.7145ZM109.494 95.1168V100.4H108.586V95.1168H109.494ZM108.518 93.7155C108.518 93.569 108.562 93.4453 108.649 93.3444C108.741 93.2434 108.874 93.193 109.05 93.193C109.222 93.193 109.354 93.2434 109.445 93.3444C109.54 93.4453 109.587 93.569 109.587 93.7155C109.587 93.8554 109.54 93.9759 109.445 94.0768C109.354 94.1744 109.222 94.2233 109.05 94.2233C108.874 94.2233 108.741 94.1744 108.649 94.0768C108.562 93.9759 108.518 93.8554 108.518 93.7155ZM113.156 95.1168V95.8102H110.3V95.1168H113.156ZM111.267 93.8326H112.17V99.0914C112.17 99.2705 112.198 99.4056 112.253 99.4967C112.308 99.5878 112.38 99.6481 112.468 99.6774C112.556 99.7067 112.65 99.7213 112.751 99.7213C112.826 99.7213 112.904 99.7148 112.985 99.7018C113.07 99.6855 113.133 99.6725 113.176 99.6627L113.181 100.4C113.109 100.423 113.015 100.444 112.897 100.464C112.784 100.486 112.645 100.498 112.482 100.498C112.261 100.498 112.058 100.454 111.872 100.366C111.687 100.278 111.538 100.131 111.428 99.9264C111.32 99.7181 111.267 99.4381 111.267 99.0865V93.8326Z" fill="white"/>
</g>
<defs>
<filter id="filter0_d_2917_3615" x="-1" y="0" width="393" height="162" filterUnits="userSpaceOnUse" color-interpolation-filters="sRGB">
<feFlood flood-opacity="0" result="BackgroundImageFix"/>
<feColorMatrix in="SourceAlpha" type="matrix" values="0 0 0 0 0 0 0 0 0 0 0 0 0 0 0 0 0 0 127 0" result="hardAlpha"/>
<feOffset dy="4"/>
<feGaussianBlur stdDeviation="7.5"/>
<feComposite in2="hardAlpha" operator="out"/>
<feColorMatrix type="matrix" values="0 0 0 0 0 0 0 0 0 0 0 0 0 0 0 0 0 0 0.16 0"/>
<feBlend mode="normal" in2="BackgroundImageFix" result="effect1_dropShadow_2917_3615"/>
<feBlend mode="normal" in="SourceGraphic" in2="effect1_dropShadow_2917_3615" result="shape"/>
</filter>
<linearGradient id="paint0_linear_2917_3615" x1="14" y1="11" x2="386.575" y2="105.084" gradientUnits="userSpaceOnUse">
<stop stop-color="#390D10"/>
<stop offset="1" stop-color="#A03033"/>
</linearGradient>
</defs>
</svg>
