<svg width="40" height="32" viewBox="0 0 40 32" fill="none" xmlns="http://www.w3.org/2000/svg">
<rect width="40" height="32" rx="8" fill="#F0F0F0"/>
<path d="M20.0012 6.83398C25.0639 6.83398 29.1678 10.9379 29.1678 16.0007C29.1678 21.0634 25.0639 25.1673 20.0012 25.1673C18.3812 25.1701 16.7897 24.7414 15.3903 23.9252L10.8382 25.1673L12.0775 20.6133C11.2607 19.2135 10.8316 17.6213 10.8345 16.0007C10.8345 10.9379 14.9384 6.83398 20.0012 6.83398ZM16.8772 11.6923L16.6938 11.6997C16.5753 11.7078 16.4595 11.739 16.3528 11.7913C16.2534 11.8477 16.1627 11.9181 16.0833 12.0003C15.9733 12.1039 15.911 12.1937 15.8441 12.2808C15.505 12.7216 15.3225 13.2629 15.3252 13.819C15.3271 14.2682 15.4444 14.7054 15.6277 15.1142C16.0027 15.9411 16.6196 16.8165 17.4336 17.6277C17.6297 17.823 17.8222 18.0192 18.0294 18.2016C19.0409 19.092 20.2462 19.7342 21.5494 20.0771L22.0701 20.1568C22.2397 20.166 22.4092 20.1532 22.5797 20.1449C22.8467 20.1308 23.1073 20.0586 23.3433 19.9332C23.4633 19.8711 23.5804 19.8038 23.6944 19.7315C23.6944 19.7315 23.7332 19.7052 23.809 19.649C23.9327 19.5573 24.0088 19.4922 24.1115 19.385C24.1885 19.3055 24.2527 19.2133 24.304 19.1082C24.3755 18.9587 24.447 18.6737 24.4763 18.4362C24.4983 18.2547 24.4919 18.1557 24.4892 18.0943C24.4855 17.9962 24.4039 17.8945 24.315 17.8514L23.7815 17.6122C23.7815 17.6122 22.984 17.2647 22.4963 17.0429C22.4453 17.0207 22.3906 17.0079 22.335 17.0053C22.2723 16.9988 22.2089 17.0058 22.1491 17.0258C22.0893 17.0459 22.0345 17.0786 21.9885 17.1217C21.9839 17.1199 21.9225 17.1722 21.2597 17.9752C21.2217 18.0263 21.1693 18.0649 21.1092 18.0861C21.0491 18.1073 20.9841 18.1102 20.9224 18.0943C20.8627 18.0784 20.8041 18.0582 20.7473 18.0338C20.6337 17.9862 20.5942 17.9678 20.5163 17.9348C19.99 17.7056 19.5029 17.3953 19.0726 17.0154C18.9571 16.9146 18.8498 16.8046 18.7398 16.6982C18.3792 16.3528 18.0649 15.9621 17.8048 15.5359L17.7507 15.4488C17.7125 15.39 17.6811 15.3269 17.6572 15.2609C17.6224 15.1262 17.7132 15.018 17.7132 15.018C17.7132 15.018 17.9359 14.7742 18.0395 14.6422C18.1403 14.5138 18.2256 14.3892 18.2806 14.3002C18.3887 14.1261 18.4227 13.9473 18.3658 13.8089C18.1092 13.1819 17.8439 12.5583 17.5702 11.938C17.5161 11.8152 17.3557 11.7272 17.2099 11.7097C17.1604 11.7036 17.1109 11.6987 17.0614 11.6951C16.9383 11.688 16.8149 11.6892 16.692 11.6987L16.8772 11.6923Z" fill="#1FAF38"/>
</svg>
