<svg width="7" height="6" viewBox="0 0 7 6" fill="none" xmlns="http://www.w3.org/2000/svg">
<path fill-rule="evenodd" clip-rule="evenodd" d="M3.3003 0.116733L2.38343 1.8875L0.194472 2.14075C0.152124 2.1455 0.112198 2.16112 0.0794771 2.18573C0.0467558 2.21034 0.0226256 2.2429 0.00997593 2.27951C-0.00267374 2.31613 -0.00330667 2.35524 0.00815294 2.39216C0.0196126 2.42909 0.042679 2.46227 0.07459 2.48772L1.69522 3.79785L1.25787 5.76204C1.24963 5.79959 1.2536 5.83848 1.2693 5.87407C1.285 5.90965 1.31177 5.94042 1.34642 5.96271C1.38106 5.985 1.42211 5.99786 1.46467 5.99975C1.50723 6.00165 1.5495 5.99251 1.58644 5.97341L3.50011 4.97636L5.416 5.97341C5.45293 5.99251 5.4952 6.00165 5.53776 5.99975C5.58032 5.99786 5.62137 5.985 5.65602 5.96271C5.69066 5.94042 5.71743 5.90965 5.73313 5.87407C5.74883 5.83848 5.7528 5.79959 5.74456 5.76204L5.30722 3.79785L6.92784 2.48772C6.95911 2.46203 6.98154 2.42883 6.99248 2.39205C7.00342 2.35527 7.00241 2.31645 6.98957 2.28017C6.97673 2.24389 6.95259 2.21167 6.92002 2.18732C6.88744 2.16297 6.84779 2.1475 6.80574 2.14274L4.61679 1.8875L3.70213 0.116733C3.68447 0.0819185 3.65603 0.0524016 3.62021 0.0317035C3.58439 0.0110054 3.5427 0 3.50011 0C3.45751 0 3.41582 0.0110054 3.38 0.0317035C3.34418 0.0524016 3.31574 0.0819185 3.29808 0.116733H3.3003Z" fill="#68262A"/>
</svg>
