<svg width="120" height="23" viewBox="0 0 120 23" fill="none" xmlns="http://www.w3.org/2000/svg">
<path d="M5.53584 4.00039L10.7838 19.0724L14.9758 5.53639L14.4638 4.06439C13.5038 1.28039 12.1598 0.51239 11.1678 0.160389V0.000389099H17.4718V0.160389C16.3198 0.35239 15.7758 1.37639 16.7038 4.00039L21.9518 19.0724L26.6238 4.00039C27.4558 1.34439 27.0398 0.35239 25.8558 0.160389V0.000389099H30.9118V0.160389C29.9198 0.51239 28.6078 1.31239 27.6158 4.06439L21.1198 22.4004H20.8958L15.4558 6.88039L9.95184 22.4004H9.72784L3.29584 4.06439C2.33584 1.28039 0.991844 0.51239 -0.000156239 0.160389V0.000389099H6.30384V0.160389C5.15184 0.35239 4.60784 1.37639 5.53584 4.00039ZM35.6241 0.320389V10.1764H39.3041C40.8721 10.1764 41.6721 8.96039 41.8001 7.80839H41.9921V12.8644H41.8001C41.6721 11.7124 40.8721 10.4964 39.3041 10.4964H35.6241V22.0804H36.8081C42.9521 22.0804 44.1361 19.8084 44.4881 18.6244H44.6161L44.1041 22.4004H31.3361V22.2404C32.5201 22.0804 33.0641 21.2804 33.0641 19.7444V2.65639C33.0641 1.12039 32.5201 0.320389 31.3361 0.160389V0.000389099H44.1041L44.6161 3.77639H44.4881C44.1361 2.59239 42.9521 0.320389 36.8081 0.320389H35.6241ZM59.9041 18.3684L57.1841 11.2964H51.0721L48.3521 18.3364C47.3281 20.9604 47.9681 22.0484 49.1201 22.2404V22.4004H44.7361V22.2404C45.7281 21.8884 46.9761 21.0884 48.0321 18.3364L55.1681 0.000389099H55.3921L62.4641 18.3364C63.5201 21.0884 64.7681 21.8884 65.7601 22.2404V22.4004H59.1361V22.2404C60.2881 22.0484 60.8961 20.9604 59.9041 18.3684ZM51.2001 10.9764H57.0561L54.1441 3.42439L51.2001 10.9764ZM67.0933 19.6164V2.78439C67.0933 0.896389 66.7733 0.320389 66.1973 0.160389V0.000389099H73.7493C77.9413 0.000389099 80.3733 2.59239 80.3733 5.31239C80.3733 9.56839 74.2933 9.44039 71.0613 11.0724C75.7333 11.1044 81.3013 16.7364 81.3013 22.4004H78.9653C78.9653 17.8564 75.7653 11.2964 70.6133 11.3284C69.8773 11.7764 69.3653 12.3524 69.1733 13.1524V19.6164C69.1733 21.5044 69.4613 22.0804 70.0373 22.2404V22.4004H66.1973V22.2404C66.7733 22.0804 67.0933 21.5044 67.0933 19.6164ZM69.1733 0.320389V12.5764C70.0053 9.08839 78.1653 10.7204 78.1653 5.08839C78.1653 2.81639 76.8213 0.320389 73.6533 0.320389H69.1733ZM81.8936 0.160389V0.000389099H87.3976V0.160389C86.2456 0.320389 85.6696 1.12039 85.6696 2.65639V19.7444C85.6696 21.2804 86.2456 22.0804 87.3976 22.2404V22.4004H81.8936V22.2404C83.0456 22.0804 83.6216 21.2804 83.6216 19.7444V2.65639C83.6216 1.12039 83.0456 0.320389 81.8936 0.160389ZM99.4333 12.8644H99.2413C99.1133 11.7124 98.3133 10.4964 96.7453 10.4964H93.0653V19.7444C93.0653 21.2804 93.6093 22.0804 94.7933 22.2404V22.4004H88.7773V22.2404C89.9613 22.0804 90.5053 21.2804 90.5053 19.7444V2.65639C90.5053 1.12039 89.9613 0.320389 88.7773 0.160389V0.000389099H101.545L102.057 3.77639H101.929C101.577 2.59239 100.393 0.320389 94.2493 0.320389H93.0653V10.1764H96.7453C98.3133 10.1764 99.1133 8.96039 99.2413 7.80839H99.4333V12.8644ZM109.701 19.7444V10.5604L105.541 3.93639C103.813 1.21639 102.725 0.416389 102.021 0.22439V0.000389099H108.037V0.22439C106.405 0.320389 106.565 1.79239 107.973 3.93639L111.781 9.82439L115.269 3.93639C116.581 1.72839 116.837 0.320389 115.205 0.22439V0.000389099H119.493V0.22439C118.789 0.416389 117.669 1.24839 115.973 3.93639L111.813 10.4964V19.7444C111.813 21.2804 112.389 22.0804 113.541 22.2404V22.4004H107.973V22.2404C109.125 22.0804 109.701 21.2804 109.701 19.7444Z" fill="#68262A"/>
</svg>
