<svg width="13" height="12" viewBox="0 0 13 12" fill="none" xmlns="http://www.w3.org/2000/svg">
<path d="M12.0144 5.57031C12.0102 5.08113 11.8283 4.61344 11.5081 4.26857L7.82654 0.270383C7.66575 0.0972044 7.44824 0 7.22153 0C6.99481 0 6.7773 0.0972044 6.61651 0.270383C6.53608 0.356821 6.47224 0.459659 6.42867 0.572965C6.3851 0.686271 6.36267 0.807803 6.36267 0.930549C6.36267 1.0533 6.3851 1.17483 6.42867 1.28813C6.47224 1.40144 6.53608 1.50428 6.61651 1.59072L9.4399 4.6405H0.858173C0.630571 4.6405 0.412292 4.73846 0.251353 4.91283C0.0904146 5.08721 0 5.32371 0 5.57031C0 5.81691 0.0904146 6.05341 0.251353 6.22779C0.412292 6.40216 0.630571 6.50012 0.858173 6.50012H9.4399L6.61651 9.5592C6.45492 9.73306 6.36368 9.96934 6.36288 10.2161C6.36207 10.4628 6.45176 10.6998 6.61222 10.8749C6.77268 11.05 6.99076 11.1488 7.21849 11.1497C7.44622 11.1506 7.66494 11.0534 7.82654 10.8795L11.5081 6.88134C11.8304 6.5342 12.0125 6.06272 12.0144 5.57031V5.57031Z" fill="black"/>
</svg>
