<svg width="24" height="24" viewBox="0 0 24 24" fill="none" xmlns="http://www.w3.org/2000/svg">
<path fill-rule="evenodd" clip-rule="evenodd" d="M14.4 24H9.6C5.0748 24 2.8116 24 1.4064 22.5936C0.00119991 21.1872 0 18.9252 0 14.4V9.6C0 5.0748 -1.43051e-07 2.8116 1.4064 1.4064C2.8128 0.00119991 5.0868 0 9.636 0C10.3632 0 10.9452 -4.91738e-08 11.436 0.0204C11.42 0.1164 11.412 0.214 11.412 0.3132L11.4 3.714C11.4 5.0304 11.4 6.1944 11.526 7.1316C11.6628 8.148 11.976 9.1644 12.8064 9.9948C13.6344 10.8228 14.652 11.1372 15.6684 11.274C16.6056 11.4 17.7696 11.4 19.086 11.4H23.9484C24 12.0408 24 12.828 24 13.8756V14.4C24 18.9252 24 21.1884 22.5936 22.5936C21.1872 23.9988 18.9252 24 14.4 24Z" fill="#68262A"/>
<path d="M20.8224 6.73992L16.0704 2.46433C14.718 1.24633 14.0424 0.636726 13.2108 0.318726L13.2 3.59953C13.2 6.42793 13.2 7.84272 14.0784 8.72112C14.9568 9.59952 16.3716 9.59953 19.2 9.59953H23.496C23.0616 8.75473 22.2816 8.05393 20.8224 6.73992Z" fill="#68262A"/>
</svg>
