<svg width="17" height="18" viewBox="0 0 17 18" fill="none" xmlns="http://www.w3.org/2000/svg">
<path d="M16.0556 12.3158C16.306 12.3158 16.5463 12.4156 16.7234 12.5933C16.9005 12.7709 17 13.0119 17 13.2632V15.1579C17 15.9117 16.7015 16.6346 16.1701 17.1676C15.6388 17.7006 14.9181 18 14.1667 18H2.83333C2.08189 18 1.36122 17.7006 0.829864 17.1676C0.298511 16.6346 0 15.9117 0 15.1579V13.2632C0 13.0119 0.0995036 12.7709 0.276621 12.5933C0.453739 12.4156 0.693962 12.3158 0.944444 12.3158C1.19493 12.3158 1.43515 12.4156 1.61227 12.5933C1.78938 12.7709 1.88889 13.0119 1.88889 13.2632V15.1579C1.88889 15.4092 1.98839 15.6501 2.16551 15.8278C2.34263 16.0055 2.58285 16.1053 2.83333 16.1053H14.1667C14.4171 16.1053 14.6574 16.0055 14.8345 15.8278C15.0116 15.6501 15.1111 15.4092 15.1111 15.1579V13.2632C15.1111 13.0119 15.2106 12.7709 15.3877 12.5933C15.5648 12.4156 15.8051 12.3158 16.0556 12.3158ZM8.5 0C8.75048 0 8.9907 0.0998117 9.16782 0.277478C9.34494 0.455144 9.44444 0.696111 9.44444 0.947368V10.0279L12.5545 6.90916C12.7326 6.73659 12.9712 6.6411 13.2188 6.64326C13.4665 6.64542 13.7033 6.74505 13.8784 6.9207C14.0535 7.09635 14.1529 7.33396 14.155 7.58236C14.1572 7.83075 14.062 8.07006 13.8899 8.24874L9.16772 12.9856C9.14093 13.0125 9.11255 13.0378 9.08272 13.0614L9.16772 12.9856C8.9982 13.1555 8.77065 13.2543 8.53117 13.2622L8.5 13.2632H8.46978L8.41878 13.2594L8.5 13.2632C8.28873 13.2632 8.08355 13.1921 7.91728 13.0614C7.88745 13.0378 7.85907 13.0125 7.83228 12.9856L3.11006 8.24874C2.93802 8.07006 2.84282 7.83075 2.84497 7.58236C2.84713 7.33396 2.94645 7.09635 3.12156 6.9207C3.29667 6.74505 3.53355 6.64542 3.78118 6.64326C4.02881 6.6411 4.26738 6.73659 4.4455 6.90916L7.55556 10.0279V0.947368C7.55556 0.696111 7.65506 0.455144 7.83218 0.277478C8.00929 0.0998117 8.24952 0 8.5 0Z" fill="#68262A"/>
</svg>
