<svg width="17" height="17" viewBox="0 0 17 17" fill="none" xmlns="http://www.w3.org/2000/svg">
<path d="M12.8455 16.4981C13.6349 16.4752 14.3972 16.2045 15.0243 15.7245C15.6515 15.2445 16.1118 14.5803 16.3401 13.8242C16.4436 13.4798 16.5001 13.1136 16.5001 12.7353V4.26471C16.5001 3.26624 16.1034 2.30868 15.3974 1.60266C14.6914 0.896637 13.7338 0.5 12.7354 0.5H4.26478C3.26632 0.5 2.30875 0.896637 1.60273 1.60266C0.896714 2.30868 0.500076 3.26624 0.500076 4.26471V12.8012C0.517351 13.7882 0.921602 14.7289 1.62576 15.4207C2.32991 16.1126 3.27763 16.5002 4.26478 16.5H12.7354L12.8455 16.4981ZM16.3401 13.8242L16.2573 13.7264L13.9363 10.9254C13.7602 10.7129 13.5395 10.5418 13.2899 10.4241C13.0403 10.3064 12.7679 10.245 12.492 10.2443C12.216 10.2436 11.9433 10.3035 11.693 10.4199C11.4428 10.5363 11.2213 10.7063 11.0441 10.9179L9.80925 12.3918L9.60784 12.6374M0.501017 12.8021L0.667606 12.6129L3.68502 9.01106C3.86169 8.8002 4.08244 8.63063 4.33172 8.51428C4.581 8.39793 4.85275 8.33764 5.12784 8.33764C5.40293 8.33764 5.67468 8.39793 5.92396 8.51428C6.17324 8.63063 6.39399 8.8002 6.57066 9.01106L9.60784 12.6374L12.758 16.3984L12.8455 16.4981" stroke="#46B31E" stroke-linecap="round" stroke-linejoin="round"/>
<path d="M11.41 7.00273C12.1897 7.00273 12.8218 6.37066 12.8218 5.59096C12.8218 4.81127 12.1897 4.1792 11.41 4.1792C10.6303 4.1792 9.99824 4.81127 9.99824 5.59096C9.99824 6.37066 10.6303 7.00273 11.41 7.00273Z" fill="#46B31E"/>
</svg>
