<svg width="32" height="32" viewBox="0 0 32 32" fill="none" xmlns="http://www.w3.org/2000/svg">
<g clip-path="url(#clip0_3300_7953)">
<path d="M0.686823 15.809C0.686073 18.4977 1.39389 21.1229 2.7398 23.4368L0.558105 31.3428L8.71004 29.2214C10.9648 30.4396 13.491 31.0779 16.0582 31.0781H16.0649C24.5396 31.0781 31.4383 24.2337 31.4419 15.8211C31.4435 11.7445 29.8454 7.91125 26.9419 5.02728C24.0389 2.14356 20.178 0.554595 16.0643 0.552734C7.58857 0.552734 0.690447 7.39677 0.686948 15.809" fill="#1FAF38"/>
<path d="M0.137622 15.8035C0.136748 18.5889 0.869936 21.308 2.26383 23.7048L0.00390625 31.8942L8.44814 29.6967C10.7748 30.9558 13.3944 31.6196 16.06 31.6206H16.0668C24.8456 31.6206 31.992 24.53 31.9958 15.8162C31.9973 11.5932 30.3417 7.62208 27.3345 4.63479C24.3269 1.64788 20.3279 0.00173643 16.0668 0C7.28656 0 0.141121 7.08961 0.137622 15.8035ZM5.16647 23.292L4.85118 22.7953C3.52576 20.7036 2.82619 18.2865 2.82719 15.8045C2.82994 8.56174 8.76893 2.66915 16.0718 2.66915C19.6084 2.67064 22.9321 4.03895 25.4319 6.52155C27.9317 9.0044 29.3072 12.3049 29.3063 15.8152C29.3031 23.058 23.364 28.9513 16.0668 28.9513H16.0616C13.6856 28.9501 11.3553 28.3168 9.32304 27.12L8.83941 26.8353L3.82844 28.1393L5.16647 23.292Z" fill="url(#paint0_linear_3300_7953)"/>
<path d="M12.0859 9.19759C11.7877 8.53986 11.4739 8.52658 11.1903 8.51505C10.9581 8.50513 10.6927 8.50587 10.4275 8.50587C10.1621 8.50587 9.73082 8.60497 9.36629 9.00001C9.00138 9.39542 7.97314 10.351 7.97314 12.2944C7.97314 14.2378 9.39941 16.1162 9.59823 16.38C9.79731 16.6433 12.3517 20.7591 16.3971 22.3425C19.7593 23.6584 20.4435 23.3967 21.1732 23.3307C21.903 23.2649 23.5281 22.3754 23.8596 21.453C24.1914 20.5307 24.1914 19.7401 24.0919 19.5749C23.9925 19.4103 23.727 19.3115 23.329 19.114C22.931 18.9165 20.9741 17.9608 20.6093 17.8289C20.2444 17.6972 19.9791 17.6315 19.7137 18.027C19.4482 18.4219 18.686 19.3115 18.4537 19.5749C18.2217 19.839 17.9894 19.8718 17.5915 19.6742C17.1932 19.476 15.9114 19.0594 14.3906 17.7138C13.2074 16.6667 12.4086 15.3737 12.1765 14.9782C11.9443 14.5833 12.1516 14.3692 12.3512 14.1724C12.53 13.9954 12.7493 13.7111 12.9485 13.4805C13.147 13.2498 13.2132 13.0852 13.3459 12.8218C13.4787 12.5581 13.4123 12.3274 13.3129 12.1298C13.2132 11.9322 12.4398 9.97862 12.0859 9.19759Z" fill="white"/>
</g>
<defs>
<linearGradient id="paint0_linear_3300_7953" x1="15.9998" y1="31.8942" x2="15.9998" y2="0" gradientUnits="userSpaceOnUse">
<stop stop-color="#F9F9F9"/>
<stop offset="1" stop-color="white"/>
</linearGradient>
<clipPath id="clip0_3300_7953">
<rect width="32" height="32" fill="white"/>
</clipPath>
</defs>
</svg>
