<svg width="38" height="30" viewBox="0 0 38 30" fill="none" xmlns="http://www.w3.org/2000/svg">
<mask id="mask0_2906_2358" style="mask-type:luminance" maskUnits="userSpaceOnUse" x="0" y="0" width="38" height="30">
<path d="M22.5005 0H15.0005C7.92984 0 4.39359 -2.23517e-07 2.19797 2.1975C0.615469 3.77812 0.172969 6.05438 0.0492188 9.84375H37.4517C37.328 6.05438 36.8855 3.77812 35.303 2.1975C33.1073 -2.23517e-07 29.5711 0 22.5005 0ZM15.0005 30H22.5005C29.5711 30 33.1073 30 35.303 27.8025C37.4986 25.605 37.5005 22.0706 37.5005 15C37.5005 14.1725 37.4992 13.3912 37.4967 12.6562H0.0042189C0.000468898 13.3912 -0.000781277 14.1725 0.000468723 15C0.000468723 22.0706 0.000468492 25.6069 2.19797 27.8025C4.39547 29.9981 7.92984 30 15.0005 30Z" fill="white"/>
<path fill-rule="evenodd" clip-rule="evenodd" d="M6.09375 22.5C6.09375 22.127 6.24191 21.7694 6.50563 21.5056C6.76935 21.2419 7.12704 21.0938 7.5 21.0938H15C15.373 21.0938 15.7306 21.2419 15.9944 21.5056C16.2581 21.7694 16.4062 22.127 16.4062 22.5C16.4062 22.873 16.2581 23.2306 15.9944 23.4944C15.7306 23.7581 15.373 23.9062 15 23.9062H7.5C7.12704 23.9062 6.76935 23.7581 6.50563 23.4944C6.24191 23.2306 6.09375 22.873 6.09375 22.5ZM18.2812 22.5C18.2812 22.127 18.4294 21.7694 18.6931 21.5056C18.9569 21.2419 19.3145 21.0938 19.6875 21.0938H22.5C22.873 21.0938 23.2306 21.2419 23.4944 21.5056C23.7581 21.7694 23.9062 22.127 23.9062 22.5C23.9062 22.873 23.7581 23.2306 23.4944 23.4944C23.2306 23.7581 22.873 23.9062 22.5 23.9062H19.6875C19.3145 23.9062 18.9569 23.7581 18.6931 23.4944C18.4294 23.2306 18.2812 22.873 18.2812 22.5Z" fill="black"/>
</mask>
<g mask="url(#mask0_2906_2358)">
<path d="M-3.75 -7.5H41.25V37.5H-3.75V-7.5Z" fill="#68262A"/>
</g>
</svg>
