<svg width="16" height="15" viewBox="0 0 16 15" fill="none" xmlns="http://www.w3.org/2000/svg">
<path d="M1.86667 6.87502C1.53717 6.54771 1.27612 6.15809 1.09871 5.72888C0.921301 5.29967 0.83109 4.83944 0.833333 4.37502C0.833333 3.43571 1.20647 2.53487 1.87066 1.87068C2.53485 1.20649 3.43569 0.833348 4.375 0.833348C5.69167 0.833348 6.84167 1.55002 7.45 2.61668H8.38333C8.6926 2.07423 9.14009 1.62342 9.68024 1.31016C10.2204 0.996902 10.8339 0.83238 11.4583 0.833348C12.3976 0.833348 13.2985 1.20649 13.9627 1.87068C14.6269 2.53487 15 3.43571 15 4.37502C15 5.35002 14.5833 6.25002 13.9667 6.87502L7.91667 12.9167L1.86667 6.87502ZM14.55 7.46668C15.3417 6.66668 15.8333 5.58335 15.8333 4.37502C15.8333 3.21469 15.3724 2.10189 14.5519 1.28142C13.7315 0.460951 12.6187 1.50433e-05 11.4583 1.50433e-05C10 1.50433e-05 8.70833 0.708348 7.91667 1.80835C7.51258 1.2471 6.9805 0.79028 6.36457 0.475788C5.74863 0.161297 5.06658 -0.00180359 4.375 1.50433e-05C3.21468 1.50433e-05 2.10188 0.460951 1.28141 1.28142C0.460936 2.10189 0 3.21469 0 4.37502C0 5.58335 0.491667 6.66668 1.28333 7.46668L7.91667 14.1L14.55 7.46668Z" fill="#68262A"/>
</svg>
