<svg width="23" height="22" viewBox="0 0 23 22" fill="none" xmlns="http://www.w3.org/2000/svg">
<path d="M22.5 20.1667V8.83333C22.5 8.62634 22.4503 8.42219 22.3548 8.23705C22.2594 8.05191 22.1208 7.89086 21.95 7.76667L12.325 0.766666C12.087 0.59357 11.7975 0.5 11.5 0.5C11.2025 0.5 10.913 0.59357 10.675 0.766666L1.05 7.76667C0.879231 7.89086 0.740626 8.05191 0.645162 8.23705C0.549699 8.42219 0.5 8.62634 0.5 8.83333V20.1667C0.5 20.5203 0.644866 20.8594 0.902728 21.1095C1.16059 21.3595 1.51033 21.5 1.875 21.5H7.375C7.73967 21.5 8.08941 21.3595 8.34727 21.1095C8.60513 20.8594 8.75 20.5203 8.75 20.1667V16.1667C8.75 15.813 8.89487 15.4739 9.15273 15.2239C9.41059 14.9738 9.76033 14.8333 10.125 14.8333H12.875C13.2397 14.8333 13.5894 14.9738 13.8473 15.2239C14.1051 15.4739 14.25 15.813 14.25 16.1667V20.1667C14.25 20.5203 14.3949 20.8594 14.6527 21.1095C14.9106 21.3595 15.2603 21.5 15.625 21.5H21.125C21.4897 21.5 21.8394 21.3595 22.0973 21.1095C22.3551 20.8594 22.5 20.5203 22.5 20.1667Z" stroke="#878787" stroke-linecap="round" stroke-linejoin="round"/>
</svg>
