<svg width="24" height="21" viewBox="0 0 24 21" fill="none" xmlns="http://www.w3.org/2000/svg">
<path d="M7.83691 0.5V0.950195L7.89355 1.05957C7.89355 1.05959 7.91903 1.11143 7.96387 1.17969C8.00698 1.24532 8.06708 1.32453 8.15137 1.41797V1.41895C8.37742 1.67059 8.71307 1.94938 9.12402 2.20801V2.20898C9.94999 2.72702 11.0127 3.125 12 3.125C12.9871 3.125 14.0513 2.72649 14.876 2.20801C15.2873 1.94916 15.6218 1.67103 15.8486 1.4209L15.8516 1.41797C15.9355 1.32381 15.9944 1.24337 16.0371 1.17773C16.0808 1.11062 16.1064 1.05965 16.1064 1.05957L16.1631 0.950195V0.5H19.5312L23.4424 5.17188L21.4229 11.9268L18.626 10.5898L17.9102 10.2471V20.5H6.08984V10.2471L5.37402 10.5898L2.57617 11.9268L0.556641 5.16992L4.46875 0.5H7.83691Z" stroke="#878787"/>
</svg>
