<svg width="21" height="21" viewBox="0 0 21 21" fill="none" xmlns="http://www.w3.org/2000/svg">
<path d="M8.38465 7.53167L9.30338 4.31812C9.64764 3.11524 11.3524 3.11524 11.6966 4.31812L12.6143 7.53167C12.6724 7.73495 12.7814 7.92008 12.9308 8.06958C13.0803 8.21908 13.2655 8.32802 13.4687 8.38613L16.6822 9.30384C17.885 9.64811 17.885 11.3529 16.6822 11.6971L13.4687 12.6149C13.2655 12.673 13.0803 12.7819 12.9308 12.9314C12.7814 13.0809 12.6724 13.266 12.6143 13.4693L11.6966 16.6829C11.3524 17.8857 9.64764 17.8857 9.30338 16.6829L8.38569 13.4693C8.32759 13.266 8.21865 13.0809 8.06915 12.9314C7.91966 12.7819 7.73453 12.673 7.53126 12.6149L4.3178 11.6971C3.11495 11.3529 3.11495 9.64811 4.3178 9.30384L7.53126 8.38613C7.73453 8.32802 7.91966 8.21908 8.06915 8.06958C8.21865 7.92008 8.32759 7.73495 8.38569 7.53167M16.8294 15.1741C17.1291 14.2999 18.389 14.2989 18.6876 15.1741L18.7146 15.2643L19.0215 16.4962L20.2534 16.8042C21.2489 17.0531 21.2489 18.4654 20.2534 18.7143L19.0215 19.0223L18.7146 20.2542C18.4657 21.2486 17.0524 21.2486 16.8035 20.2542L16.4956 19.0223L15.2637 18.7143C14.2682 18.4654 14.2682 17.052 15.2637 16.8042L16.4956 16.4962L16.8035 15.2643L16.8294 15.1741ZM17.7585 17.5487C17.6989 17.6287 17.628 17.6996 17.548 17.7592C17.628 17.8189 17.6989 17.8898 17.7585 17.9697C17.8182 17.8898 17.8891 17.8189 17.969 17.7592C17.889 17.6992 17.8181 17.628 17.7585 17.5477M2.31236 0.655569C2.62137 -0.247626 3.95591 -0.217554 4.19751 0.745784L4.50444 1.9777L5.73632 2.28567C6.73178 2.53455 6.73178 3.94689 5.73632 4.19576L4.50444 4.50374L4.19751 5.73565C3.94865 6.7301 2.53531 6.7301 2.28644 5.73565L1.97847 4.50374L0.746593 4.19576C-0.248864 3.94689 -0.248864 2.53351 0.746593 2.28567L1.97847 1.9777L2.28644 0.745784L2.31236 0.655569ZM3.24146 3.03125C3.1817 3.11081 3.11081 3.18136 3.03096 3.24072C3.11096 3.30071 3.18186 3.37196 3.24146 3.45226C3.30106 3.37196 3.37196 3.30071 3.45196 3.24072C3.37203 3.18104 3.30113 3.11118 3.24146 3.03125Z" fill="#878787"/>
</svg>
