<svg width="25" height="22" viewBox="0 0 25 22" fill="none" xmlns="http://www.w3.org/2000/svg">
<path d="M15.1773 3.3C15.1773 2.55739 14.8964 1.8452 14.3963 1.3201C13.8962 0.794999 13.2179 0.5 12.5107 0.5C11.8034 0.5 11.1251 0.794999 10.625 1.3201C10.125 1.8452 9.844 2.55739 9.844 3.3C9.844 5.6338 10.7373 7.5 12.5107 8.9H12.5M12.5 8.9L23.128 15.0992C23.5439 15.3417 23.8905 15.6967 24.1317 16.1272C24.373 16.5578 24.5001 17.0483 24.5 17.5478V18.7C24.5 19.4426 24.219 20.1548 23.719 20.6799C23.2189 21.205 22.5406 21.5 21.8333 21.5H3.16667C2.45942 21.5 1.78115 21.205 1.28105 20.6799C0.780952 20.1548 0.5 19.4426 0.5 18.7V17.5478C0.499875 17.0483 0.627029 16.5578 0.868277 16.1272C1.10952 15.6967 1.45608 15.3417 1.872 15.0992L12.5 8.9Z" stroke="#878787" stroke-linecap="round" stroke-linejoin="round"/>
</svg>
