<svg width="28" height="28" viewBox="0 0 28 28" fill="none" xmlns="http://www.w3.org/2000/svg">
<g clip-path="url(#clip0_2965_1661)">
<path d="M0.600909 13.8324C0.600253 16.185 1.2196 18.4821 2.39727 20.5068L0.488281 27.4245L7.62122 25.5682C9.59411 26.6342 11.8046 27.1927 14.0508 27.1929H14.0567C21.4721 27.1929 27.5084 21.204 27.5116 13.843C27.513 10.276 26.1147 6.92187 23.5741 4.39839C21.034 1.87514 17.6557 0.484797 14.0562 0.48317C6.63994 0.48317 0.60408 6.4717 0.601018 13.8324" fill="#1FAF38"/>
<path d="M0.12042 13.8281C0.119654 16.2653 0.761194 18.6445 1.98085 20.7417L0.00341797 27.9074L7.39212 25.9846C9.42795 27.0863 11.7201 27.6671 14.0525 27.668H14.0585C21.7399 27.668 27.993 21.4637 27.9963 13.8392C27.9976 10.144 26.549 6.66932 23.9177 4.05544C21.286 1.44189 17.7869 0.00151938 14.0585 0C6.37574 0 0.123481 6.20341 0.12042 13.8281ZM4.52066 20.3805L4.24478 19.9459C3.08504 18.1157 2.47292 16.0007 2.47379 13.829C2.4762 7.49152 7.67282 2.3355 14.0628 2.3355C17.1574 2.33681 20.0656 3.53408 22.253 5.70636C24.4402 7.87885 25.6438 10.7668 25.643 13.8383C25.6402 20.1757 20.4435 25.3324 14.0585 25.3324H14.0539C11.9749 25.3313 9.93586 24.7772 8.15766 23.73L7.73449 23.4809L3.34988 24.6219L4.52066 20.3805Z" fill="url(#paint0_linear_2965_1661)"/>
<path d="M10.5752 8.04707C10.3143 7.47155 10.0397 7.45994 9.7916 7.44984C9.58843 7.44116 9.35618 7.44181 9.12414 7.44181C8.89189 7.44181 8.51453 7.52853 8.19557 7.87419C7.87627 8.22017 6.97656 9.05626 6.97656 10.7568C6.97656 12.4573 8.22454 14.1008 8.39851 14.3317C8.5727 14.5621 10.8078 18.1634 14.3476 19.5489C17.2894 20.7002 17.8881 20.4713 18.5266 20.4135C19.1652 20.356 20.5871 19.5776 20.8772 18.7705C21.1675 17.9635 21.1675 17.2718 21.0805 17.1272C20.9935 16.9832 20.7612 16.8967 20.4129 16.7239C20.0647 16.5511 18.3524 15.7148 18.0332 15.5995C17.7139 15.4842 17.4818 15.4267 17.2495 15.7728C17.0173 16.1183 16.3504 16.8967 16.1471 17.1272C15.944 17.3583 15.7407 17.387 15.3926 17.2141C15.0441 17.0407 13.9225 16.6762 12.5919 15.4988C11.5566 14.5826 10.8576 13.4512 10.6545 13.1051C10.4513 12.7595 10.6327 12.5722 10.8073 12.4C10.9638 12.2451 11.1557 11.9964 11.33 11.7946C11.5036 11.5928 11.5616 11.4487 11.6777 11.2182C11.794 10.9875 11.7358 10.7856 11.6489 10.6128C11.5616 10.4399 10.8849 8.73047 10.5752 8.04707Z" fill="white"/>
</g>
<defs>
<linearGradient id="paint0_linear_2965_1661" x1="13.9999" y1="27.9074" x2="13.9999" y2="0" gradientUnits="userSpaceOnUse">
<stop stop-color="#F9F9F9"/>
<stop offset="1" stop-color="white"/>
</linearGradient>
<clipPath id="clip0_2965_1661">
<rect width="28" height="28" fill="white"/>
</clipPath>
</defs>
</svg>
