<svg width="16" height="16" viewBox="0 0 16 16" fill="none" xmlns="http://www.w3.org/2000/svg">
<path opacity="0.5" d="M16 6.4H0V13.6C0 14.2365 0.252856 14.847 0.702944 15.2971C1.15303 15.7471 1.76348 16 2.4 16H13.6C14.2365 16 14.847 15.7471 15.2971 15.2971C15.7471 14.847 16 14.2365 16 13.6V6.4ZM4 4.8C3.78783 4.8 3.58434 4.71571 3.43431 4.56569C3.28429 4.41566 3.2 4.21217 3.2 4V0.8C3.2 0.587827 3.28429 0.384344 3.43431 0.234315C3.58434 0.0842854 3.78783 0 4 0C4.21217 0 4.41566 0.0842854 4.56569 0.234315C4.71571 0.384344 4.8 0.587827 4.8 0.8V4C4.8 4.21217 4.71571 4.41566 4.56569 4.56569C4.41566 4.71571 4.21217 4.8 4 4.8ZM12 4.8C11.7878 4.8 11.5843 4.71571 11.4343 4.56569C11.2843 4.41566 11.2 4.21217 11.2 4V0.8C11.2 0.587827 11.2843 0.384344 11.4343 0.234315C11.5843 0.0842854 11.7878 0 12 0C12.2122 0 12.4157 0.0842854 12.5657 0.234315C12.7157 0.384344 12.8 0.587827 12.8 0.8V4C12.8 4.21217 12.7157 4.41566 12.5657 4.56569C12.4157 4.71571 12.2122 4.8 12 4.8Z" fill="#68262A"/>
<path d="M13.6 1.59961H12.8V3.99961C12.8 4.21178 12.7157 4.41527 12.5657 4.56529C12.4157 4.71532 12.2122 4.79961 12 4.79961C11.7878 4.79961 11.5843 4.71532 11.4343 4.56529C11.2843 4.41527 11.2 4.21178 11.2 3.99961V1.59961H4.8V3.99961C4.8 4.21178 4.71571 4.41527 4.56569 4.56529C4.41566 4.71532 4.21217 4.79961 4 4.79961C3.78783 4.79961 3.58434 4.71532 3.43431 4.56529C3.28429 4.41527 3.2 4.21178 3.2 3.99961V1.59961H2.4C1.76348 1.59961 1.15303 1.85247 0.702944 2.30255C0.252856 2.75264 0 3.36309 0 3.99961V6.39961H16V3.99961C16 3.36309 15.7471 2.75264 15.2971 2.30255C14.847 1.85247 14.2365 1.59961 13.6 1.59961Z" fill="#68262A"/>
</svg>
