<svg width="90" height="17" viewBox="0 0 90 17" fill="none" xmlns="http://www.w3.org/2000/svg">
<path d="M4.15188 3.00078L8.08788 14.3048L11.2319 4.15278L10.8479 3.04878C10.1279 0.960781 9.11988 0.384781 8.37588 0.12078V0.000780106H13.1039V0.12078C12.2399 0.264781 11.8319 1.03278 12.5279 3.00078L16.4639 14.3048L19.9679 3.00078C20.5919 1.00878 20.2799 0.264781 19.3919 0.12078V0.000780106H23.1839V0.12078C22.4399 0.384781 21.4559 0.98478 20.7119 3.04878L15.8399 16.8008H15.6719L11.5919 5.16078L7.46388 16.8008H7.29588L2.47188 3.04878C1.75188 0.960781 0.743883 0.384781 -0.000117179 0.12078V0.000780106H4.72788V0.12078C3.86388 0.264781 3.45588 1.03278 4.15188 3.00078ZM26.6656 0.24078V7.63278H29.4256C30.6016 7.63278 31.2016 6.72078 31.2976 5.85678H31.4416V9.64878H31.2976C31.2016 8.78478 30.6016 7.87278 29.4256 7.87278H26.6656V16.5608H27.5536C32.1616 16.5608 33.0496 14.8568 33.3136 13.9688H33.4096L33.0256 16.8008H23.4496V16.6808C24.3376 16.5608 24.7456 15.9608 24.7456 14.8088V1.99278C24.7456 0.840781 24.3376 0.24078 23.4496 0.12078V0.000780106H33.0256L33.4096 2.83278H33.3136C33.0496 1.94478 32.1616 0.24078 27.5536 0.24078H26.6656ZM44.8231 13.7768L42.7831 8.47278H38.1991L36.1591 13.7528C35.3911 15.7208 35.8711 16.5368 36.7351 16.6808V16.8008H33.4471V16.6808C34.1911 16.4168 35.1271 15.8168 35.9191 13.7528L41.2711 0.000780106H41.4391L46.7431 13.7528C47.5351 15.8168 48.4711 16.4168 49.2151 16.6808V16.8008H44.2471V16.6808C45.1111 16.5368 45.5671 15.7208 44.8231 13.7768ZM38.2951 8.23278H42.6871L40.5031 2.56878L38.2951 8.23278ZM50.1625 14.7128V2.08878C50.1625 0.67278 49.9225 0.24078 49.4905 0.12078V0.000780106H55.1545C58.2985 0.000780106 60.1225 1.94478 60.1225 3.98478C60.1225 7.17678 55.5625 7.08078 53.1385 8.30478C56.6425 8.32878 60.8185 12.5528 60.8185 16.8008H59.0665C59.0665 13.3928 56.6665 8.47278 52.8025 8.49678C52.2505 8.83278 51.8665 9.26478 51.7225 9.86478V14.7128C51.7225 16.1288 51.9385 16.5608 52.3705 16.6808V16.8008H49.4905V16.6808C49.9225 16.5608 50.1625 16.1288 50.1625 14.7128ZM51.7225 0.24078V9.43278C52.3465 6.81678 58.4665 8.04078 58.4665 3.81678C58.4665 2.11278 57.4585 0.24078 55.0825 0.24078H51.7225ZM61.2102 0.12078V0.000780106H65.3382V0.12078C64.4742 0.24078 64.0422 0.840781 64.0422 1.99278V14.8088C64.0422 15.9608 64.4742 16.5608 65.3382 16.6808V16.8008H61.2102V16.6808C62.0742 16.5608 62.5062 15.9608 62.5062 14.8088V1.99278C62.5062 0.840781 62.0742 0.24078 61.2102 0.12078ZM74.3125 9.64878H74.1685C74.0725 8.78478 73.4725 7.87278 72.2965 7.87278H69.5365V14.8088C69.5365 15.9608 69.9445 16.5608 70.8325 16.6808V16.8008H66.3205V16.6808C67.2085 16.5608 67.6165 15.9608 67.6165 14.8088V1.99278C67.6165 0.840781 67.2085 0.24078 66.3205 0.12078V0.000780106H75.8965L76.2805 2.83278H76.1845C75.9205 1.94478 75.0325 0.24078 70.4245 0.24078H69.5365V7.63278H72.2965C73.4725 7.63278 74.0725 6.72078 74.1685 5.85678H74.3125V9.64878ZM81.9608 14.8088V7.92078L78.8408 2.95278C77.5448 0.91278 76.7288 0.31278 76.2008 0.168781V0.000780106H80.7128V0.168781C79.4888 0.24078 79.6088 1.34478 80.6648 2.95278L83.5208 7.36878L86.1368 2.95278C87.1208 1.29678 87.3128 0.24078 86.0888 0.168781V0.000780106H89.3048V0.168781C88.7768 0.31278 87.9368 0.936781 86.6648 2.95278L83.5448 7.87278V14.8088C83.5448 15.9608 83.9768 16.5608 84.8408 16.6808V16.8008H80.6648V16.6808C81.5288 16.5608 81.9608 15.9608 81.9608 14.8088Z" fill="#68262A"/>
</svg>
