<svg width="19" height="18" viewBox="0 0 19 18" fill="none" xmlns="http://www.w3.org/2000/svg">
<path d="M18.375 8.87452H6.35392M2.11078 8.87452H0.375M2.11078 8.87452C2.11078 8.31526 2.33425 7.77891 2.73203 7.38346C3.12981 6.988 3.66932 6.76584 4.23187 6.76584C4.79441 6.76584 5.33392 6.988 5.7317 7.38346C6.12948 7.77891 6.35295 8.31526 6.35295 8.87452C6.35295 9.43377 6.12948 9.97012 5.7317 10.3656C5.33392 10.761 4.79441 10.9832 4.23187 10.9832C3.66932 10.9832 3.12981 10.761 2.73203 10.3656C2.33425 9.97012 2.11078 9.43377 2.11078 8.87452ZM18.375 15.2654H12.7824M12.7824 15.2654C12.7824 15.8247 12.5583 16.3617 12.1605 16.7572C11.7626 17.1528 11.223 17.375 10.6603 17.375C10.0978 17.375 9.55825 17.1519 9.16047 16.7564C8.76269 16.361 8.53922 15.8246 8.53922 15.2654M12.7824 15.2654C12.7824 14.706 12.5583 14.17 12.1605 13.7744C11.7626 13.3789 11.223 13.1567 10.6603 13.1567C10.0978 13.1567 9.55825 13.3788 9.16047 13.7743C8.76269 14.1697 8.53922 14.7061 8.53922 15.2654M8.53922 15.2654H0.375M18.375 2.48368H15.3539M11.1108 2.48368H0.375M11.1108 2.48368C11.1108 1.92442 11.3343 1.38807 11.732 0.992617C12.1298 0.597163 12.6693 0.375 13.2319 0.375C13.5104 0.375 13.7862 0.429543 14.0436 0.535514C14.3009 0.641484 14.5347 0.796808 14.7317 0.992617C14.9287 1.18843 15.0849 1.42088 15.1915 1.67672C15.2981 1.93256 15.3529 2.20676 15.3529 2.48368C15.3529 2.76059 15.2981 3.0348 15.1915 3.29063C15.0849 3.54647 14.9287 3.77893 14.7317 3.97474C14.5347 4.17055 14.3009 4.32587 14.0436 4.43184C13.7862 4.53781 13.5104 4.59235 13.2319 4.59235C12.6693 4.59235 12.1298 4.37019 11.732 3.97474C11.3343 3.57928 11.1108 3.04293 11.1108 2.48368Z" stroke="black" stroke-width="0.75" stroke-miterlimit="10" stroke-linecap="round"/>
</svg>
